M48
; DRILL file KiCad 10.0.3 date 2026-07-22T10:13:54
; FORMAT={-:-/ absolute / metric / decimal}
; #@! TF.CreationDate,2026-07-22T10:13:54+02:00
; #@! TF.GenerationSoftware,Kicad,Pcbnew,10.0.3
; #@! TF.FileFunction,Plated,1,4,PTH
FMAT,2
METRIC
; #@! TA.AperFunction,Plated,PTH,ViaDrill
T1C0.250
; #@! TA.AperFunction,Plated,PTH,ViaDrill
T2C0.300
; #@! TA.AperFunction,Plated,PTH,ComponentDrill
T3C0.800
; #@! TA.AperFunction,Plated,PTH,ComponentDrill
T4C1.000
; #@! TA.AperFunction,Plated,PTH,ComponentDrill
T5C1.016
; #@! TA.AperFunction,Plated,PTH,ComponentDrill
T6C1.070
%
G90
G05
T1
X115.56Y-135.64
X116.9Y-133.1
X118.322Y-130.56
X119.8Y-128.0
X133.8Y-116.0
X135.0Y-116.6
X135.211Y-75.286
X135.254Y-74.569
X137.6Y-114.8
X138.225Y-115.309
X138.4Y-119.775
X138.4Y-121.025
X138.425Y-104.788
X138.687Y-73.563
X138.854Y-115.971
X139.2Y-121.025
X139.284Y-119.775
X139.623Y-72.75
X140.205Y-105.36
X141.6Y-119.6
X143.175Y-114.958
X143.2Y-108.0
X143.714Y-119.2
X143.8Y-116.2
X144.399Y-115.101
X144.8Y-119.775
X147.793Y-121.007
X147.8Y-111.935
X147.8Y-116.2
X148.0Y-108.2
X148.3Y-112.435
X148.3Y-115.7
X148.9Y-113.7
X149.5Y-109.0
X149.519Y-110.5
X150.4Y-121.0
X153.0Y-111.6
X153.181Y-117.194
X153.6Y-112.2
X154.4Y-102.2
X155.3Y-113.3
X157.2Y-120.4
X168.3Y-121.6
X168.9Y-118.1
X171.6Y-106.6
X171.8Y-112.2
T2
X110.75Y-138.4
X111.125Y-73.525
X111.125Y-74.8
X111.15Y-72.225
X111.15Y-77.35
X111.175Y-83.275
X111.175Y-84.525
X111.175Y-85.775
X111.175Y-88.35
X115.125Y-77.4
X115.3Y-88.5
X115.6Y-127.2
X117.4Y-97.0
X117.4Y-101.4
X117.8Y-112.2
X117.8Y-115.0
X118.6Y-124.4
X119.1Y-66.3
X119.2Y-135.0
X120.975Y-122.5
X121.475Y-66.225
X121.6Y-122.0
X121.8Y-132.4
X122.225Y-88.5
X122.4Y-121.3
X123.525Y-118.85
X123.8Y-98.0
X123.975Y-135.36
X124.4Y-78.9
X124.4Y-130.0
X124.466Y-97.375
X125.2Y-88.5
X125.8Y-114.2
X126.0Y-96.0
X126.0Y-99.0
X126.0Y-101.4
X126.487Y-69.013
X126.6Y-115.4
X126.65Y-83.6
X126.8Y-108.2
X126.8Y-111.8
X127.275Y-133.46
X127.5Y-98.9
X127.6Y-129.8
X128.3Y-98.625
X129.025Y-76.625
X129.487Y-67.812
X129.6Y-124.4
X129.7Y-84.8
X130.4Y-129.8
X130.6Y-101.4
X131.2Y-131.6
X131.6Y-125.0
X131.825Y-122.175
X131.9Y-70.7
X132.275Y-136.8
X132.9Y-94.3
X132.9Y-96.5
X132.9Y-102.4
X133.0Y-105.5
X133.2Y-126.7
X133.725Y-139.925
X133.725Y-141.025
X134.3Y-75.0
X134.4Y-84.3
X134.725Y-132.125
X135.214Y-107.875
X135.5Y-72.4
X136.175Y-94.3
X136.175Y-96.4
X136.491Y-105.503
X136.6Y-115.4
X136.6Y-129.8
X137.25Y-105.25
X137.5Y-129.8
X137.7Y-101.8
X138.425Y-144.125
X138.8Y-134.4
X138.8Y-138.2
X140.6Y-124.4
X141.175Y-101.7
X141.2Y-114.6
X142.025Y-143.625
X142.2Y-110.6
X142.31Y-99.43
X142.506Y-98.636
X142.9Y-126.375
X142.9Y-141.075
X142.925Y-143.625
X143.0Y-115.8
X143.0Y-134.4
X143.0Y-138.2
X143.121Y-98.125
X143.75Y-128.75
X143.766Y-97.651
X143.95Y-127.95
X144.0Y-72.4
X144.2Y-110.6
X145.025Y-142.725
X145.252Y-118.548
X145.6Y-124.0
X146.425Y-143.925
X146.525Y-132.225
X146.564Y-107.686
X147.4Y-98.4
X147.925Y-132.725
X148.2Y-84.6
X148.265Y-114.977
X149.05Y-127.025
X149.1Y-119.0
X149.8Y-139.2
X150.2Y-79.4
X151.8Y-98.4
X151.8Y-106.8
X152.2Y-87.2
X152.4Y-127.0
X152.675Y-134.53
X153.6Y-119.2
X154.475Y-138.33
X155.2Y-82.4
X155.6Y-130.4
X157.0Y-115.1
X157.4Y-93.6
X157.4Y-123.6
X157.6Y-99.6
X158.2Y-77.4
X158.2Y-82.4
X159.2Y-129.4
X159.7Y-112.6
X159.8Y-106.4
X160.6Y-96.6
X161.0Y-127.0
X161.4Y-119.2
X163.0Y-103.2
X163.0Y-106.4
X163.6Y-93.8
X164.4Y-122.4
X165.4Y-100.6
X166.8Y-124.8
X166.9Y-115.1
X167.5Y-103.75
X167.5Y-106.5
X171.75Y-103.75
X174.8Y-128.2
T3
X162.875Y-134.53
X162.875Y-136.53
X162.875Y-138.53
T4
X130.95Y-81.95
X130.95Y-86.45
X137.45Y-81.95
X137.45Y-86.45
T5
X109.5Y-95.0
X109.5Y-97.54
X109.5Y-100.08
X109.5Y-102.62
X109.5Y-105.16
X109.5Y-107.7
X109.5Y-110.24
X109.5Y-112.78
X109.5Y-115.32
X109.5Y-117.86
X109.5Y-120.4
X109.5Y-122.94
X109.5Y-125.48
X109.5Y-128.02
X109.5Y-130.56
X109.5Y-133.1
X109.5Y-135.64
X109.5Y-138.18
X109.5Y-140.72
X112.04Y-95.0
X112.04Y-97.54
X112.04Y-100.08
X112.04Y-102.62
X112.04Y-105.16
X112.04Y-107.7
X112.04Y-110.24
X112.04Y-112.78
X112.04Y-115.32
X112.04Y-117.86
X112.04Y-120.4
X112.04Y-122.94
X112.04Y-125.48
X112.04Y-128.02
X112.04Y-130.56
X112.04Y-133.1
X112.04Y-135.64
X112.04Y-138.18
X112.04Y-140.72
X170.46Y-95.0
X170.46Y-97.54
X170.46Y-100.08
X170.46Y-102.62
X170.46Y-105.16
X170.46Y-107.7
X170.46Y-110.24
X170.46Y-112.78
X170.46Y-115.32
X170.46Y-117.86
X170.46Y-120.4
X170.46Y-122.94
X170.46Y-125.48
X170.46Y-128.02
X170.46Y-130.56
X170.46Y-133.1
X170.46Y-135.64
X170.46Y-138.18
X170.46Y-140.72
X173.0Y-95.0
X173.0Y-97.54
X173.0Y-100.08
X173.0Y-102.62
X173.0Y-105.16
X173.0Y-107.7
X173.0Y-110.24
X173.0Y-112.78
X173.0Y-115.32
X173.0Y-117.86
X173.0Y-120.4
X173.0Y-122.94
X173.0Y-125.48
X173.0Y-128.02
X173.0Y-130.56
X173.0Y-133.1
X173.0Y-135.64
X173.0Y-138.18
X173.0Y-140.72
T6
X143.6Y-85.13
X143.6Y-87.67
X159.15Y-133.965
X159.15Y-136.505
X164.53Y-82.4
X164.53Y-87.2
X167.07Y-82.4
X167.07Y-87.2
M30
