%TF.GenerationSoftware,KiCad,Pcbnew,10.0.3*%
%TF.CreationDate,2026-07-22T10:13:51+02:00*%
%TF.ProjectId,Nucleo_devboard,4e75636c-656f-45f6-9465-76626f617264,rev?*%
%TF.SameCoordinates,Original*%
%TF.FileFunction,Paste,Top*%
%TF.FilePolarity,Positive*%
%FSLAX46Y46*%
G04 Gerber Fmt 4.6, Leading zero omitted, Abs format (unit mm)*
G04 Created by KiCad (PCBNEW 10.0.3) date 2026-07-22 10:13:51*
%MOMM*%
%LPD*%
G01*
G04 APERTURE LIST*
G04 Aperture macros list*
%AMRoundRect*
0 Rectangle with rounded corners*
0 $1 Rounding radius*
0 $2 $3 $4 $5 $6 $7 $8 $9 X,Y pos of 4 corners*
0 Add a 4 corners polygon primitive as box body*
4,1,4,$2,$3,$4,$5,$6,$7,$8,$9,$2,$3,0*
0 Add four circle primitives for the rounded corners*
1,1,$1+$1,$2,$3*
1,1,$1+$1,$4,$5*
1,1,$1+$1,$6,$7*
1,1,$1+$1,$8,$9*
0 Add four rect primitives between the rounded corners*
20,1,$1+$1,$2,$3,$4,$5,0*
20,1,$1+$1,$4,$5,$6,$7,0*
20,1,$1+$1,$6,$7,$8,$9,0*
20,1,$1+$1,$8,$9,$2,$3,0*%
G04 Aperture macros list end*
%ADD10RoundRect,0.112500X-0.187500X-0.112500X0.187500X-0.112500X0.187500X0.112500X-0.187500X0.112500X0*%
%ADD11RoundRect,0.225000X-0.225000X-0.250000X0.225000X-0.250000X0.225000X0.250000X-0.225000X0.250000X0*%
%ADD12RoundRect,0.200000X-0.200000X-0.275000X0.200000X-0.275000X0.200000X0.275000X-0.200000X0.275000X0*%
%ADD13RoundRect,0.150000X0.512500X0.150000X-0.512500X0.150000X-0.512500X-0.150000X0.512500X-0.150000X0*%
%ADD14RoundRect,0.150000X-0.825000X-0.150000X0.825000X-0.150000X0.825000X0.150000X-0.825000X0.150000X0*%
%ADD15RoundRect,0.225000X0.250000X-0.225000X0.250000X0.225000X-0.250000X0.225000X-0.250000X-0.225000X0*%
%ADD16RoundRect,0.218750X-0.381250X0.218750X-0.381250X-0.218750X0.381250X-0.218750X0.381250X0.218750X0*%
%ADD17RoundRect,0.250000X0.450000X-0.262500X0.450000X0.262500X-0.450000X0.262500X-0.450000X-0.262500X0*%
%ADD18RoundRect,0.075000X-0.700000X-0.075000X0.700000X-0.075000X0.700000X0.075000X-0.700000X0.075000X0*%
%ADD19RoundRect,0.075000X-0.075000X-0.700000X0.075000X-0.700000X0.075000X0.700000X-0.075000X0.700000X0*%
%ADD20R,2.794000X0.736600*%
%ADD21RoundRect,0.250000X0.262500X0.450000X-0.262500X0.450000X-0.262500X-0.450000X0.262500X-0.450000X0*%
%ADD22RoundRect,0.112500X0.187500X0.112500X-0.187500X0.112500X-0.187500X-0.112500X0.187500X-0.112500X0*%
%ADD23RoundRect,0.250000X-0.250000X-0.475000X0.250000X-0.475000X0.250000X0.475000X-0.250000X0.475000X0*%
%ADD24RoundRect,0.250000X-0.325000X-0.650000X0.325000X-0.650000X0.325000X0.650000X-0.325000X0.650000X0*%
%ADD25RoundRect,0.218750X0.256250X-0.218750X0.256250X0.218750X-0.256250X0.218750X-0.256250X-0.218750X0*%
%ADD26RoundRect,0.200000X0.275000X-0.200000X0.275000X0.200000X-0.275000X0.200000X-0.275000X-0.200000X0*%
%ADD27RoundRect,0.225000X-0.375000X0.225000X-0.375000X-0.225000X0.375000X-0.225000X0.375000X0.225000X0*%
%ADD28RoundRect,0.140000X-0.170000X0.140000X-0.170000X-0.140000X0.170000X-0.140000X0.170000X0.140000X0*%
%ADD29RoundRect,0.243750X0.243750X0.456250X-0.243750X0.456250X-0.243750X-0.456250X0.243750X-0.456250X0*%
%ADD30RoundRect,0.225000X0.225000X0.250000X-0.225000X0.250000X-0.225000X-0.250000X0.225000X-0.250000X0*%
%ADD31RoundRect,0.200000X-0.275000X0.200000X-0.275000X-0.200000X0.275000X-0.200000X0.275000X0.200000X0*%
%ADD32RoundRect,0.200000X-0.200000X0.250000X-0.200000X-0.250000X0.200000X-0.250000X0.200000X0.250000X0*%
%ADD33RoundRect,0.250000X-0.262500X-0.450000X0.262500X-0.450000X0.262500X0.450000X-0.262500X0.450000X0*%
%ADD34R,1.800000X1.000000*%
%ADD35R,0.584200X1.143000*%
%ADD36R,0.304800X1.143000*%
%ADD37RoundRect,0.250000X-0.475000X0.250000X-0.475000X-0.250000X0.475000X-0.250000X0.475000X0.250000X0*%
%ADD38RoundRect,0.250000X0.475000X-0.250000X0.475000X0.250000X-0.475000X0.250000X-0.475000X-0.250000X0*%
%ADD39RoundRect,0.140000X0.170000X-0.140000X0.170000X0.140000X-0.170000X0.140000X-0.170000X-0.140000X0*%
%ADD40RoundRect,0.140000X0.140000X0.170000X-0.140000X0.170000X-0.140000X-0.170000X0.140000X-0.170000X0*%
%ADD41RoundRect,0.247500X0.247500X0.247500X-0.247500X0.247500X-0.247500X-0.247500X0.247500X-0.247500X0*%
%ADD42RoundRect,0.075000X0.362500X0.075000X-0.362500X0.075000X-0.362500X-0.075000X0.362500X-0.075000X0*%
%ADD43RoundRect,0.075000X0.075000X0.362500X-0.075000X0.362500X-0.075000X-0.362500X0.075000X-0.362500X0*%
%ADD44RoundRect,0.250000X0.250000X0.475000X-0.250000X0.475000X-0.250000X-0.475000X0.250000X-0.475000X0*%
G04 APERTURE END LIST*
D10*
%TO.C,D12*%
X128800000Y-89400000D03*
X126700000Y-89400000D03*
%TD*%
%TO.C,D11*%
X126650000Y-84800000D03*
X128750000Y-84800000D03*
%TD*%
D11*
%TO.C,C7*%
X130112500Y-72212500D03*
X131662500Y-72212500D03*
%TD*%
D12*
%TO.C,R6*%
X128575000Y-109400000D03*
X130225000Y-109400000D03*
%TD*%
D13*
%TO.C,U2*%
X132850000Y-76000000D03*
X132850000Y-75050000D03*
X132850000Y-74100000D03*
X130575000Y-74100000D03*
X130575000Y-75050000D03*
X130575000Y-76000000D03*
%TD*%
D14*
%TO.C,U7*%
X151075001Y-133930000D03*
X151075001Y-135200000D03*
X151075001Y-136470000D03*
X151075001Y-137740000D03*
X156025001Y-137740000D03*
X156025001Y-136470000D03*
X156025001Y-135200000D03*
X156025001Y-133930000D03*
%TD*%
D15*
%TO.C,C12*%
X157900000Y-87900000D03*
X157900000Y-86350000D03*
%TD*%
D16*
%TO.C,FB1*%
X154200000Y-77275000D03*
X154200000Y-79400000D03*
%TD*%
D12*
%TO.C,R17*%
X117250000Y-87100000D03*
X118900000Y-87100000D03*
%TD*%
D17*
%TO.C,R8*%
X155400000Y-105000000D03*
X155400000Y-103175000D03*
%TD*%
D18*
%TO.C,U6*%
X134975000Y-132925000D03*
X134975000Y-133425000D03*
X134975000Y-133925000D03*
X134975000Y-134425000D03*
X134975000Y-134925000D03*
X134975000Y-135425000D03*
X134975000Y-135925000D03*
X134975000Y-136425000D03*
X134975000Y-136925000D03*
X134975000Y-137425000D03*
X134975000Y-137925000D03*
X134975000Y-138425000D03*
X134975000Y-138925000D03*
X134975000Y-139425000D03*
X134975000Y-139925000D03*
X134975000Y-140425000D03*
D19*
X136900000Y-142350000D03*
X137400000Y-142350000D03*
X137900000Y-142350000D03*
X138400000Y-142350000D03*
X138900000Y-142350000D03*
X139400000Y-142350000D03*
X139900000Y-142350000D03*
X140400000Y-142350000D03*
X140900000Y-142350000D03*
X141400000Y-142350000D03*
X141900000Y-142350000D03*
X142400000Y-142350000D03*
X142900000Y-142350000D03*
X143400000Y-142350000D03*
X143900000Y-142350000D03*
X144400000Y-142350000D03*
D18*
X146325000Y-140425000D03*
X146325000Y-139925000D03*
X146325000Y-139425000D03*
X146325000Y-138925000D03*
X146325000Y-138425000D03*
X146325000Y-137925000D03*
X146325000Y-137425000D03*
X146325000Y-136925000D03*
X146325000Y-136425000D03*
X146325000Y-135925000D03*
X146325000Y-135425000D03*
X146325000Y-134925000D03*
X146325000Y-134425000D03*
X146325000Y-133925000D03*
X146325000Y-133425000D03*
X146325000Y-132925000D03*
D19*
X144400000Y-131000000D03*
X143900000Y-131000000D03*
X143400000Y-131000000D03*
X142900000Y-131000000D03*
X142400000Y-131000000D03*
X141900000Y-131000000D03*
X141400000Y-131000000D03*
X140900000Y-131000000D03*
X140400000Y-131000000D03*
X139900000Y-131000000D03*
X139400000Y-131000000D03*
X138900000Y-131000000D03*
X138400000Y-131000000D03*
X137900000Y-131000000D03*
X137400000Y-131000000D03*
X136900000Y-131000000D03*
%TD*%
D20*
%TO.C,J2*%
X109168000Y-81990000D03*
X113232000Y-81990000D03*
X109168000Y-83260000D03*
X113232000Y-83260000D03*
X109168000Y-84530000D03*
X113232000Y-84530000D03*
X109168000Y-85800000D03*
X113232000Y-85800000D03*
X109168000Y-87070000D03*
X113232000Y-87070000D03*
X109168000Y-88340000D03*
X113232000Y-88340000D03*
X109168000Y-89610000D03*
X113232000Y-89610000D03*
%TD*%
D21*
%TO.C,R19*%
X164200000Y-115100000D03*
X162375000Y-115100000D03*
%TD*%
D22*
%TO.C,D7*%
X128750000Y-87100000D03*
X126650000Y-87100000D03*
%TD*%
D23*
%TO.C,C6*%
X130137500Y-69012500D03*
X132037500Y-69012500D03*
%TD*%
D11*
%TO.C,C42*%
X145925000Y-142725000D03*
X147475000Y-142725000D03*
%TD*%
D12*
%TO.C,R5*%
X128375000Y-111600000D03*
X130025000Y-111600000D03*
%TD*%
D24*
%TO.C,C20*%
X147550000Y-104600000D03*
X150500000Y-104600000D03*
%TD*%
D11*
%TO.C,C27*%
X143850000Y-120800000D03*
X145400000Y-120800000D03*
%TD*%
D25*
%TO.C,FB2*%
X143800000Y-126387500D03*
X143800000Y-124812500D03*
%TD*%
D26*
%TO.C,R15*%
X140650000Y-76575000D03*
X140650000Y-74925000D03*
%TD*%
D17*
%TO.C,R9*%
X153400000Y-105000000D03*
X153400000Y-103175000D03*
%TD*%
D27*
%TO.C,D1*%
X148800000Y-76000000D03*
X148800000Y-79300000D03*
%TD*%
D11*
%TO.C,C22*%
X146225000Y-119000000D03*
X147775000Y-119000000D03*
%TD*%
D12*
%TO.C,R18*%
X117262500Y-89400000D03*
X118912500Y-89400000D03*
%TD*%
D11*
%TO.C,C44*%
X136225000Y-129000000D03*
X137775000Y-129000000D03*
%TD*%
D28*
%TO.C,C17*%
X127975000Y-134680000D03*
X127975000Y-135640000D03*
%TD*%
D29*
%TO.C,D5*%
X148937500Y-82500000D03*
X147062500Y-82500000D03*
%TD*%
D30*
%TO.C,C47*%
X133775000Y-131600000D03*
X132225000Y-131600000D03*
%TD*%
D31*
%TO.C,R1*%
X123987500Y-67887500D03*
X123987500Y-69537500D03*
%TD*%
D29*
%TO.C,D8*%
X160225000Y-115100000D03*
X158350000Y-115100000D03*
%TD*%
D17*
%TO.C,R12*%
X139600000Y-102312500D03*
X139600000Y-100487500D03*
%TD*%
D28*
%TO.C,C10*%
X125800000Y-108440000D03*
X125800000Y-109400000D03*
%TD*%
D30*
%TO.C,C30*%
X141975000Y-120800000D03*
X140425000Y-120800000D03*
%TD*%
D10*
%TO.C,D2*%
X159620000Y-82400000D03*
X161720000Y-82400000D03*
%TD*%
D32*
%TO.C,Y1*%
X123450000Y-116100000D03*
X123450000Y-117500000D03*
X124550000Y-117500000D03*
X124550000Y-116100000D03*
%TD*%
D33*
%TO.C,R13*%
X153487500Y-90400000D03*
X155312500Y-90400000D03*
%TD*%
D11*
%TO.C,C51*%
X154575001Y-139435000D03*
X156125001Y-139435000D03*
%TD*%
D17*
%TO.C,R3*%
X119300000Y-69512500D03*
X119300000Y-67687500D03*
%TD*%
D11*
%TO.C,C28*%
X143875000Y-122600000D03*
X145425000Y-122600000D03*
%TD*%
D30*
%TO.C,C5*%
X128262500Y-70612500D03*
X126712500Y-70612500D03*
%TD*%
D28*
%TO.C,C9*%
X126000000Y-116320000D03*
X126000000Y-117280000D03*
%TD*%
D11*
%TO.C,C50*%
X151175001Y-139435000D03*
X152725001Y-139435000D03*
%TD*%
D15*
%TO.C,C14*%
X148200000Y-88175000D03*
X148200000Y-86625000D03*
%TD*%
D30*
%TO.C,C31*%
X134375000Y-107000000D03*
X132825000Y-107000000D03*
%TD*%
D33*
%TO.C,R29*%
X158237501Y-139235000D03*
X160062501Y-139235000D03*
%TD*%
D30*
%TO.C,C24*%
X134775000Y-117600000D03*
X133225000Y-117600000D03*
%TD*%
%TO.C,C29*%
X142000000Y-122600000D03*
X140450000Y-122600000D03*
%TD*%
D13*
%TO.C,U5*%
X153337500Y-88150000D03*
X153337500Y-87200000D03*
X153337500Y-86250000D03*
X151062500Y-86250000D03*
X151062500Y-88150000D03*
%TD*%
D20*
%TO.C,J1*%
X109168000Y-70990000D03*
X113232000Y-70990000D03*
X109168000Y-72260000D03*
X113232000Y-72260000D03*
X109168000Y-73530000D03*
X113232000Y-73530000D03*
X109168000Y-74800000D03*
X113232000Y-74800000D03*
X109168000Y-76070000D03*
X113232000Y-76070000D03*
X109168000Y-77340000D03*
X113232000Y-77340000D03*
X109168000Y-78610000D03*
X113232000Y-78610000D03*
%TD*%
D29*
%TO.C,D4*%
X161637500Y-90400000D03*
X159762500Y-90400000D03*
%TD*%
D26*
%TO.C,R2*%
X121487500Y-69537500D03*
X121487500Y-67887500D03*
%TD*%
D11*
%TO.C,C45*%
X142950000Y-144325000D03*
X144500000Y-144325000D03*
%TD*%
D34*
%TO.C,Y2*%
X123955000Y-108720000D03*
X123955000Y-111220000D03*
%TD*%
D35*
%TO.C,J6*%
X142998201Y-70900000D03*
X142198202Y-70900000D03*
D36*
X141048201Y-70900000D03*
X140048201Y-70900000D03*
X139548201Y-70900000D03*
X138548201Y-70900000D03*
D35*
X136598201Y-70900000D03*
X137398200Y-70900000D03*
D36*
X138048202Y-70900000D03*
X139048200Y-70900000D03*
X140548202Y-70900000D03*
X141548200Y-70900000D03*
%TD*%
D11*
%TO.C,C41*%
X146900000Y-131325000D03*
X148450000Y-131325000D03*
%TD*%
D10*
%TO.C,D3*%
X159620000Y-87200000D03*
X161720000Y-87200000D03*
%TD*%
D15*
%TO.C,C13*%
X155900000Y-87925000D03*
X155900000Y-86375000D03*
%TD*%
D37*
%TO.C,C1*%
X151600000Y-77400000D03*
X151600000Y-79300000D03*
%TD*%
D12*
%TO.C,R11*%
X117275000Y-84800000D03*
X118925000Y-84800000D03*
%TD*%
D38*
%TO.C,C2*%
X156600000Y-79350000D03*
X156600000Y-77450000D03*
%TD*%
D11*
%TO.C,C21*%
X147450000Y-106800000D03*
X149000000Y-106800000D03*
%TD*%
D30*
%TO.C,C15*%
X134475000Y-104000000D03*
X132925000Y-104000000D03*
%TD*%
D39*
%TO.C,C11*%
X125800000Y-111600000D03*
X125800000Y-110640000D03*
%TD*%
D18*
%TO.C,U1*%
X135214400Y-108510001D03*
X135214400Y-109010000D03*
X135214400Y-109510000D03*
X135214400Y-110010000D03*
X135214400Y-110510000D03*
X135214400Y-111010001D03*
X135214400Y-111510000D03*
X135214400Y-112010000D03*
X135214400Y-112510000D03*
X135214400Y-113010000D03*
X135214400Y-113509999D03*
X135214400Y-114010000D03*
X135214400Y-114510000D03*
X135214400Y-115010000D03*
X135214400Y-115510000D03*
X135214400Y-116009999D03*
D19*
X137139401Y-117935000D03*
X137639400Y-117935000D03*
X138139400Y-117935000D03*
X138639400Y-117935000D03*
X139139400Y-117935000D03*
X139639401Y-117935000D03*
X140139400Y-117935000D03*
X140639400Y-117935000D03*
X141139400Y-117935000D03*
X141639400Y-117935000D03*
X142139399Y-117935000D03*
X142639400Y-117935000D03*
X143139400Y-117935000D03*
X143639400Y-117935000D03*
X144139400Y-117935000D03*
X144639399Y-117935000D03*
D18*
X146564400Y-116009999D03*
X146564400Y-115510000D03*
X146564400Y-115010000D03*
X146564400Y-114510000D03*
X146564400Y-114010000D03*
X146564400Y-113509999D03*
X146564400Y-113010000D03*
X146564400Y-112510000D03*
X146564400Y-112010000D03*
X146564400Y-111510000D03*
X146564400Y-111010001D03*
X146564400Y-110510000D03*
X146564400Y-110010000D03*
X146564400Y-109510000D03*
X146564400Y-109010000D03*
X146564400Y-108510001D03*
D19*
X144639399Y-106585000D03*
X144139400Y-106585000D03*
X143639400Y-106585000D03*
X143139400Y-106585000D03*
X142639400Y-106585000D03*
X142139399Y-106585000D03*
X141639400Y-106585000D03*
X141139400Y-106585000D03*
X140639400Y-106585000D03*
X140139400Y-106585000D03*
X139639401Y-106585000D03*
X139139400Y-106585000D03*
X138639400Y-106585000D03*
X138139400Y-106585000D03*
X137639400Y-106585000D03*
X137139401Y-106585000D03*
%TD*%
D30*
%TO.C,C18*%
X133775000Y-129800000D03*
X132225000Y-129800000D03*
%TD*%
D40*
%TO.C,C16*%
X126255000Y-132960000D03*
X125295000Y-132960000D03*
%TD*%
D12*
%TO.C,R16*%
X128350000Y-133160000D03*
X130000000Y-133160000D03*
%TD*%
D30*
%TO.C,C46*%
X141225000Y-144325000D03*
X139675000Y-144325000D03*
%TD*%
D12*
%TO.C,R10*%
X117275000Y-82500000D03*
X118925000Y-82500000D03*
%TD*%
D22*
%TO.C,D6*%
X128750000Y-82500000D03*
X126650000Y-82500000D03*
%TD*%
D15*
%TO.C,C43*%
X132925000Y-141500000D03*
X132925000Y-139950000D03*
%TD*%
D24*
%TO.C,C40*%
X146125000Y-129125000D03*
X149075000Y-129125000D03*
%TD*%
D41*
%TO.C,U3*%
X126660000Y-75572500D03*
X126660000Y-74352500D03*
X125440000Y-75572500D03*
X125440000Y-74352500D03*
D42*
X127987500Y-76212500D03*
X127987500Y-75712500D03*
X127987500Y-75212500D03*
X127987500Y-74712500D03*
X127987500Y-74212500D03*
X127987500Y-73712500D03*
D43*
X127300000Y-73025000D03*
X126800000Y-73025000D03*
X126300000Y-73025000D03*
X125800000Y-73025000D03*
X125300000Y-73025000D03*
X124800000Y-73025000D03*
D42*
X124112500Y-73712500D03*
X124112500Y-74212500D03*
X124112500Y-74712500D03*
X124112500Y-75212500D03*
X124112500Y-75712500D03*
X124112500Y-76212500D03*
D43*
X124800000Y-76900000D03*
X125300000Y-76900000D03*
X125800000Y-76900000D03*
X126300000Y-76900000D03*
X126800000Y-76900000D03*
X127300000Y-76900000D03*
%TD*%
D15*
%TO.C,C26*%
X142000000Y-126375000D03*
X142000000Y-124825000D03*
%TD*%
D11*
%TO.C,C23*%
X136225000Y-104000000D03*
X137775000Y-104000000D03*
%TD*%
D33*
%TO.C,R4*%
X120137500Y-75852500D03*
X121962500Y-75852500D03*
%TD*%
%TO.C,R7*%
X151587500Y-82500000D03*
X153412500Y-82500000D03*
%TD*%
D40*
%TO.C,C8*%
X124480000Y-114550000D03*
X123520000Y-114550000D03*
%TD*%
D44*
%TO.C,C4*%
X128237500Y-67412500D03*
X126337500Y-67412500D03*
%TD*%
D32*
%TO.C,Y3*%
X125175000Y-134360000D03*
X125175000Y-135760000D03*
X126275000Y-135760000D03*
X126275000Y-134360000D03*
%TD*%
D31*
%TO.C,R14*%
X138900000Y-74925000D03*
X138900000Y-76575000D03*
%TD*%
M02*
