%TF.GenerationSoftware,KiCad,Pcbnew,10.0.3*%
%TF.CreationDate,2026-07-22T10:13:51+02:00*%
%TF.ProjectId,Nucleo_devboard,4e75636c-656f-45f6-9465-76626f617264,rev?*%
%TF.SameCoordinates,Original*%
%TF.FileFunction,Legend,Bot*%
%TF.FilePolarity,Positive*%
%FSLAX46Y46*%
G04 Gerber Fmt 4.6, Leading zero omitted, Abs format (unit mm)*
G04 Created by KiCad (PCBNEW 10.0.3) date 2026-07-22 10:13:51*
%MOMM*%
%LPD*%
G01*
G04 APERTURE LIST*
%ADD10C,0.000000*%
%ADD11C,0.508000*%
G04 APERTURE END LIST*
D10*
%TO.C,G\u002A\u002A\u002A*%
G36*
X143695592Y-128889440D02*
G01*
X143665294Y-129316678D01*
X143573739Y-129700044D01*
X143566906Y-129719458D01*
X143386949Y-130120215D01*
X143142335Y-130512957D01*
X142852529Y-130870190D01*
X142536995Y-131164418D01*
X142313633Y-131340357D01*
X142332230Y-132270178D01*
X142336946Y-132697793D01*
X142331784Y-133064867D01*
X142316015Y-133361010D01*
X142289320Y-133596038D01*
X142227814Y-133992076D01*
X143182568Y-133963543D01*
X143582108Y-133954289D01*
X143985445Y-133952842D01*
X144306614Y-133962268D01*
X144549960Y-133982816D01*
X144719829Y-134014740D01*
X144820567Y-134058288D01*
X144855921Y-134087802D01*
X144873930Y-134131750D01*
X144854966Y-134203853D01*
X144796733Y-134330349D01*
X144790800Y-134342695D01*
X144740810Y-134462908D01*
X144714142Y-134579671D01*
X144713648Y-134588946D01*
X144706443Y-134724178D01*
X144713358Y-134927623D01*
X144728414Y-135132221D01*
X144751555Y-135286280D01*
X144779774Y-135351942D01*
X144811915Y-135328627D01*
X144846821Y-135215757D01*
X144883337Y-135012754D01*
X144929478Y-134769846D01*
X145022149Y-134468913D01*
X145141561Y-134232068D01*
X145283108Y-134065874D01*
X145442185Y-133976890D01*
X145614186Y-133971677D01*
X145686328Y-133997439D01*
X145835445Y-134109242D01*
X145973810Y-134283525D01*
X146092014Y-134501205D01*
X146180647Y-134743199D01*
X146230300Y-134990424D01*
X146231565Y-135223798D01*
X146203647Y-135372374D01*
X146111675Y-135590757D01*
X145972554Y-135744562D01*
X145794624Y-135825993D01*
X145586226Y-135827248D01*
X145424733Y-135796952D01*
X145452534Y-135428297D01*
X145459316Y-135329225D01*
X145463922Y-135185897D01*
X145455274Y-135122997D01*
X145432949Y-135134168D01*
X145409969Y-135195864D01*
X145381513Y-135344098D01*
X145356132Y-135552669D01*
X145346675Y-135665161D01*
X145334976Y-135804319D01*
X145319192Y-136081794D01*
X145309931Y-136367837D01*
X145308342Y-136645193D01*
X145315573Y-136896607D01*
X145321878Y-137003384D01*
X145339938Y-137254295D01*
X145365064Y-137562545D01*
X145395430Y-137907017D01*
X145427006Y-138243141D01*
X145429210Y-138266600D01*
X145464579Y-138620178D01*
X145486157Y-138839719D01*
X145515194Y-139196712D01*
X145531248Y-139394079D01*
X145547377Y-139666455D01*
X145564326Y-139952671D01*
X145585262Y-140502062D01*
X145593925Y-141028822D01*
X145590187Y-141519517D01*
X145580223Y-141789736D01*
X145573919Y-141960718D01*
X145544991Y-142338993D01*
X145503274Y-142640909D01*
X145480563Y-142773597D01*
X145454444Y-142967149D01*
X145442002Y-143121733D01*
X145445745Y-143212449D01*
X145468594Y-143262645D01*
X145566940Y-143359332D01*
X145745536Y-143468686D01*
X145892252Y-143553584D01*
X146046184Y-143674098D01*
X146130223Y-143797603D01*
X146155714Y-143937056D01*
X146161416Y-144009238D01*
X146189272Y-144047967D01*
X146255100Y-144052848D01*
X146374714Y-144024980D01*
X146563929Y-143965464D01*
X146648633Y-143939625D01*
X146800909Y-143904590D01*
X146973014Y-143882065D01*
X147188539Y-143869413D01*
X147471072Y-143863996D01*
X147653687Y-143863042D01*
X147856534Y-143865440D01*
X148002784Y-143874575D01*
X148112640Y-143892960D01*
X148206305Y-143923103D01*
X148303983Y-143967518D01*
X148391621Y-144014855D01*
X148520063Y-144118359D01*
X148604533Y-144254702D01*
X148630967Y-144326022D01*
X148654070Y-144539615D01*
X148604037Y-144745203D01*
X148489252Y-144919795D01*
X148318095Y-145040397D01*
X148309835Y-145043174D01*
X148275686Y-145049303D01*
X148218235Y-145054995D01*
X148134549Y-145060261D01*
X148021697Y-145065113D01*
X147876749Y-145069564D01*
X147696774Y-145073625D01*
X147478842Y-145077307D01*
X147220020Y-145080623D01*
X146917378Y-145083584D01*
X146567986Y-145086203D01*
X146168912Y-145088490D01*
X145717225Y-145090458D01*
X145209995Y-145092119D01*
X144644291Y-145093484D01*
X144017182Y-145094565D01*
X143325736Y-145095374D01*
X142567024Y-145095923D01*
X141738114Y-145096223D01*
X140836075Y-145096286D01*
X139857976Y-145096124D01*
X138800887Y-145095750D01*
X137661876Y-145095173D01*
X136438013Y-145094408D01*
X135126366Y-145093464D01*
X134363752Y-145092846D01*
X133297868Y-145091845D01*
X132258097Y-145090711D01*
X131248028Y-145089453D01*
X130271250Y-145088080D01*
X129331353Y-145086601D01*
X128431924Y-145085025D01*
X127576553Y-145083363D01*
X126768830Y-145081622D01*
X126012342Y-145079812D01*
X125310679Y-145077942D01*
X124667429Y-145076022D01*
X124086183Y-145074061D01*
X123570528Y-145072067D01*
X123124053Y-145070050D01*
X122750348Y-145068020D01*
X122453002Y-145065985D01*
X122235603Y-145063955D01*
X122101740Y-145061939D01*
X122055003Y-145059946D01*
X122052391Y-145055636D01*
X122036362Y-144986733D01*
X122017641Y-144856028D01*
X121999756Y-144687327D01*
X121968131Y-144338333D01*
X122124043Y-144182421D01*
X122188713Y-144124219D01*
X122371655Y-144011040D01*
X122606394Y-143929588D01*
X122905067Y-143876349D01*
X123279809Y-143847811D01*
X123376252Y-143844336D01*
X123644270Y-143843296D01*
X123849866Y-143859305D01*
X124013756Y-143893657D01*
X124095307Y-143916525D01*
X124211597Y-143937181D01*
X124307645Y-143924869D01*
X124426537Y-143877947D01*
X124543177Y-143816331D01*
X124597926Y-143751801D01*
X124611072Y-143658204D01*
X124609987Y-143626201D01*
X124575571Y-143525108D01*
X124475000Y-143450714D01*
X124436403Y-143430443D01*
X124368860Y-143384430D01*
X124347562Y-143329240D01*
X124369555Y-143240380D01*
X124431883Y-143093357D01*
X124468253Y-142987403D01*
X124510912Y-142732964D01*
X124525712Y-142394423D01*
X124512620Y-141973216D01*
X124485016Y-141635104D01*
X125118310Y-141635104D01*
X125128823Y-141957919D01*
X125179461Y-142349263D01*
X125269889Y-142815714D01*
X125311762Y-143026910D01*
X125347927Y-143251948D01*
X125369874Y-143442180D01*
X125373930Y-143570951D01*
X125359464Y-143781903D01*
X125790357Y-143813708D01*
X125877390Y-143821071D01*
X126089120Y-143845941D01*
X126275014Y-143876671D01*
X126402679Y-143908257D01*
X126446322Y-143923038D01*
X126557362Y-143957553D01*
X126618125Y-143971661D01*
X126632984Y-143945457D01*
X126646808Y-143850598D01*
X126652143Y-143710210D01*
X126652329Y-143692035D01*
X126660946Y-143535512D01*
X126680534Y-143319691D01*
X126696224Y-143179833D01*
X127428739Y-143179833D01*
X127442793Y-143259008D01*
X127484331Y-143317907D01*
X127560622Y-143383769D01*
X127670976Y-143503749D01*
X127735913Y-143681137D01*
X127764692Y-143858928D01*
X128194936Y-143890355D01*
X128289218Y-143897905D01*
X128488139Y-143917995D01*
X128653636Y-143940067D01*
X128757138Y-143960554D01*
X128775818Y-143965294D01*
X128941252Y-143972347D01*
X129165352Y-143937682D01*
X129273463Y-143917311D01*
X129535856Y-143887237D01*
X129834973Y-143872024D01*
X130145532Y-143871421D01*
X130442250Y-143885178D01*
X130699846Y-143913045D01*
X130893036Y-143954771D01*
X130992872Y-143985566D01*
X131108576Y-144012661D01*
X131214513Y-144017958D01*
X131343420Y-144002001D01*
X131528036Y-143965335D01*
X131868302Y-143911749D01*
X132240885Y-143888679D01*
X132590774Y-143901764D01*
X132887853Y-143951315D01*
X133027408Y-143984173D01*
X133154085Y-143998294D01*
X133285135Y-143987341D01*
X133461962Y-143951315D01*
X133606989Y-143924745D01*
X133894452Y-143895055D01*
X134215131Y-143883017D01*
X134538471Y-143888606D01*
X134833919Y-143911799D01*
X135070922Y-143952572D01*
X135265039Y-143992259D01*
X135431235Y-143999072D01*
X135618105Y-143974109D01*
X135656635Y-143967095D01*
X136065750Y-143913411D01*
X136485370Y-143892011D01*
X136883932Y-143903404D01*
X137229878Y-143948100D01*
X137231437Y-143948410D01*
X137421429Y-143984050D01*
X137565800Y-144001839D01*
X137698190Y-144001776D01*
X137852241Y-143983862D01*
X138061591Y-143948096D01*
X138342944Y-143906104D01*
X138618882Y-143889908D01*
X138913856Y-143901962D01*
X138940782Y-143903939D01*
X139129644Y-143914125D01*
X139383944Y-143923636D01*
X139682466Y-143931869D01*
X140003997Y-143938222D01*
X140327322Y-143942093D01*
X140661212Y-143945865D01*
X140940281Y-143952419D01*
X141152207Y-143962382D01*
X141309137Y-143976567D01*
X141423221Y-143995784D01*
X141506607Y-144020845D01*
X141545472Y-144035520D01*
X141660870Y-144065830D01*
X141777410Y-144064692D01*
X141937500Y-144033335D01*
X142038624Y-144013384D01*
X142235057Y-143983583D01*
X142468073Y-143955111D01*
X142706300Y-143932100D01*
X142838257Y-143920635D01*
X143033925Y-143898882D01*
X143163224Y-143874872D01*
X143242191Y-143845128D01*
X143286860Y-143806171D01*
X143315271Y-143759624D01*
X143310479Y-143702141D01*
X143239724Y-143629248D01*
X143209056Y-143600209D01*
X143166597Y-143538907D01*
X143138178Y-143450122D01*
X143118222Y-143312790D01*
X143101151Y-143105847D01*
X143096656Y-143049633D01*
X143067112Y-142800003D01*
X143024820Y-142547007D01*
X142977357Y-142337670D01*
X142924881Y-142174571D01*
X142806006Y-141881747D01*
X142761206Y-141788807D01*
X143814623Y-141788807D01*
X143818338Y-142215229D01*
X143835890Y-142725000D01*
X143844318Y-142922925D01*
X143856071Y-143220047D01*
X143865404Y-143483165D01*
X143871863Y-143698126D01*
X143873125Y-143759624D01*
X143874995Y-143850776D01*
X143874348Y-143926964D01*
X143873654Y-143977626D01*
X143905181Y-144030993D01*
X144001250Y-144049301D01*
X144007426Y-144049640D01*
X144148307Y-144037767D01*
X144296072Y-143999970D01*
X144343409Y-143982973D01*
X144384044Y-143963565D01*
X144416644Y-143933100D01*
X144443288Y-143881673D01*
X144466056Y-143799376D01*
X144487028Y-143676304D01*
X144508282Y-143502551D01*
X144531898Y-143268210D01*
X144559955Y-142963376D01*
X144594534Y-142578143D01*
X144626764Y-142162013D01*
X144642071Y-141789736D01*
X144636657Y-141484176D01*
X144609829Y-141233984D01*
X144560893Y-141027812D01*
X144489156Y-140854311D01*
X144442676Y-140779683D01*
X144325754Y-140667591D01*
X144197145Y-140618890D01*
X144078232Y-140644497D01*
X144029753Y-140682335D01*
X143953075Y-140788267D01*
X143893970Y-140945463D01*
X143851692Y-141160341D01*
X143825492Y-141439317D01*
X143814623Y-141788807D01*
X142761206Y-141788807D01*
X142655977Y-141570501D01*
X142490532Y-141272639D01*
X142325408Y-141019972D01*
X142173860Y-140811729D01*
X141658805Y-140782053D01*
X141413709Y-140770732D01*
X141109944Y-140761144D01*
X140792097Y-140754623D01*
X140499007Y-140752170D01*
X140415002Y-140752176D01*
X140185015Y-140753309D01*
X140026220Y-140757845D01*
X139923558Y-140767985D01*
X139861968Y-140785927D01*
X139826392Y-140813871D01*
X139801768Y-140854018D01*
X139755726Y-140934059D01*
X139614624Y-141101058D01*
X139456513Y-141203013D01*
X139295890Y-141238579D01*
X139147257Y-141206414D01*
X139025115Y-141105174D01*
X138943961Y-140933514D01*
X138937641Y-140910447D01*
X138898969Y-140805841D01*
X138845179Y-140761959D01*
X138749413Y-140754023D01*
X138689860Y-140757982D01*
X138620099Y-140785485D01*
X138560944Y-140856788D01*
X138490357Y-140992148D01*
X138440656Y-141091055D01*
X138379037Y-141182464D01*
X138311307Y-141225570D01*
X138213625Y-141241889D01*
X138107363Y-141240835D01*
X138017008Y-141200688D01*
X137918803Y-141101478D01*
X137886874Y-141063600D01*
X137798991Y-140954803D01*
X137741964Y-140877634D01*
X137736911Y-140871666D01*
X137713684Y-140858650D01*
X137669856Y-140847712D01*
X137599051Y-140838757D01*
X137494899Y-140831686D01*
X137351024Y-140826404D01*
X137161054Y-140822813D01*
X136918615Y-140820817D01*
X136617335Y-140820318D01*
X136250839Y-140821220D01*
X135812754Y-140823426D01*
X135296707Y-140826840D01*
X134696326Y-140831364D01*
X131696044Y-140854852D01*
X131511833Y-141245640D01*
X131490938Y-141290376D01*
X131384628Y-141527400D01*
X131278036Y-141777643D01*
X131191405Y-141993835D01*
X131172912Y-142041305D01*
X131098581Y-142215017D01*
X131027972Y-142357160D01*
X130974218Y-142440711D01*
X130859669Y-142538466D01*
X130685238Y-142623009D01*
X130502507Y-142658482D01*
X130336505Y-142640776D01*
X130212257Y-142565784D01*
X130192804Y-142543448D01*
X130166246Y-142499544D01*
X130158986Y-142442635D01*
X130173037Y-142354350D01*
X130210411Y-142216315D01*
X130273122Y-142010159D01*
X130284495Y-141973130D01*
X130368944Y-141685689D01*
X130442215Y-141414953D01*
X130500030Y-141178295D01*
X130538113Y-140993086D01*
X130552187Y-140876696D01*
X130552190Y-140875966D01*
X130546871Y-140853981D01*
X130524779Y-140836506D01*
X130476671Y-140823028D01*
X130393304Y-140813032D01*
X130265436Y-140806006D01*
X130083826Y-140801436D01*
X129839229Y-140798808D01*
X129522403Y-140797607D01*
X129124107Y-140797321D01*
X128827397Y-140797624D01*
X128477341Y-140799268D01*
X128203874Y-140802653D01*
X127998711Y-140808131D01*
X127853564Y-140816055D01*
X127760147Y-140826775D01*
X127710174Y-140840645D01*
X127695357Y-140858017D01*
X127695351Y-140858748D01*
X127689421Y-140923899D01*
X127673639Y-141063369D01*
X127649814Y-141262038D01*
X127619761Y-141504788D01*
X127596639Y-141687040D01*
X127585289Y-141776499D01*
X127553077Y-142030654D01*
X127517274Y-142320265D01*
X127485560Y-142584176D01*
X127460501Y-142800972D01*
X127444666Y-142949239D01*
X127434899Y-143053138D01*
X127428739Y-143179833D01*
X126696224Y-143179833D01*
X126708474Y-143070635D01*
X126742148Y-142814407D01*
X126787517Y-142467231D01*
X126827574Y-142039340D01*
X126836596Y-141687040D01*
X126812656Y-141403991D01*
X126753824Y-141183851D01*
X126658170Y-141020279D01*
X126523765Y-140906933D01*
X126348681Y-140837472D01*
X126130987Y-140805555D01*
X125895586Y-140799184D01*
X125679142Y-140821429D01*
X125508812Y-140880668D01*
X125362798Y-140981907D01*
X125330844Y-141012065D01*
X125218987Y-141168754D01*
X125148253Y-141374242D01*
X125118310Y-141635104D01*
X124485016Y-141635104D01*
X124471600Y-141470780D01*
X124442710Y-141025278D01*
X124454331Y-140557697D01*
X124470101Y-140449662D01*
X124790983Y-140449662D01*
X124798610Y-140594379D01*
X124846929Y-140697536D01*
X124943447Y-140748312D01*
X125058225Y-140716291D01*
X125191214Y-140597104D01*
X125285836Y-140467555D01*
X125286048Y-140467140D01*
X142317403Y-140467140D01*
X142339231Y-140531122D01*
X142420439Y-140629090D01*
X142482282Y-140698298D01*
X142604993Y-140842347D01*
X142725393Y-140990089D01*
X142837019Y-141113553D01*
X142954130Y-141193491D01*
X143042351Y-141191040D01*
X143097598Y-141106713D01*
X143115790Y-140941022D01*
X143114712Y-140917383D01*
X143084540Y-140779580D01*
X143254151Y-140779580D01*
X143280097Y-140941022D01*
X143296032Y-141040173D01*
X143306882Y-141069824D01*
X143361148Y-141166528D01*
X143416248Y-141205536D01*
X143439369Y-141199035D01*
X143500393Y-141133938D01*
X143549929Y-141026129D01*
X143570357Y-140909463D01*
X143580757Y-140834274D01*
X143631030Y-140678220D01*
X143709132Y-140503546D01*
X143799537Y-140343530D01*
X143886716Y-140231451D01*
X143911368Y-140208517D01*
X143988398Y-140151153D01*
X144079870Y-140114428D01*
X144211195Y-140090554D01*
X144407782Y-140071741D01*
X144429990Y-140069934D01*
X144663275Y-140041930D01*
X144820848Y-139997353D01*
X144916424Y-139926430D01*
X144963713Y-139819389D01*
X144976429Y-139666455D01*
X144966466Y-139549402D01*
X144925711Y-139402822D01*
X144863922Y-139296309D01*
X144792428Y-139255178D01*
X144765449Y-139278687D01*
X144749643Y-139359500D01*
X144748629Y-139389817D01*
X144722351Y-139480255D01*
X144649680Y-139536240D01*
X144516183Y-139564728D01*
X144307426Y-139572678D01*
X144079021Y-139583480D01*
X143887430Y-139626525D01*
X143734997Y-139711815D01*
X143596271Y-139849249D01*
X143531033Y-139933204D01*
X143407574Y-140150302D01*
X143377370Y-140203415D01*
X143283170Y-140493101D01*
X143254151Y-140779580D01*
X143084540Y-140779580D01*
X143082329Y-140769480D01*
X143016888Y-140610393D01*
X142934552Y-140473646D01*
X142851481Y-140392766D01*
X142848383Y-140391138D01*
X142720858Y-140353248D01*
X142569719Y-140345382D01*
X142431859Y-140366020D01*
X142344172Y-140413644D01*
X142317403Y-140467140D01*
X125286048Y-140467140D01*
X125367997Y-140306464D01*
X125407342Y-140176473D01*
X126856135Y-140176473D01*
X126889815Y-140192496D01*
X127004606Y-140203662D01*
X127205091Y-140207950D01*
X127205715Y-140207951D01*
X127448294Y-140211805D01*
X127721929Y-140221610D01*
X127967500Y-140235249D01*
X128353036Y-140262276D01*
X128179165Y-140169903D01*
X128144745Y-140152248D01*
X128064621Y-140119484D01*
X127974178Y-140100082D01*
X127853370Y-140092258D01*
X127682153Y-140094231D01*
X127440480Y-140104217D01*
X127195932Y-140119456D01*
X127013776Y-140137933D01*
X126903720Y-140156800D01*
X126898983Y-140157612D01*
X126856135Y-140176473D01*
X125407342Y-140176473D01*
X125413296Y-140156800D01*
X125410380Y-140047058D01*
X125409782Y-140045976D01*
X132911429Y-140045976D01*
X132923091Y-140089962D01*
X132955663Y-140182047D01*
X132986166Y-140262276D01*
X132999898Y-140298393D01*
X135223520Y-140298393D01*
X135551583Y-140298149D01*
X136069795Y-140296472D01*
X136501282Y-140293157D01*
X136848596Y-140288147D01*
X137114287Y-140281387D01*
X137300908Y-140272822D01*
X137411010Y-140262396D01*
X137447143Y-140250054D01*
X137445278Y-140240562D01*
X138713741Y-140240562D01*
X138715029Y-140250054D01*
X138715962Y-140256927D01*
X138760376Y-140288452D01*
X138817098Y-140274033D01*
X138825280Y-140260651D01*
X138826036Y-140202423D01*
X140041095Y-140202423D01*
X140063015Y-140224910D01*
X140121660Y-140238764D01*
X140230519Y-140245539D01*
X140403081Y-140246790D01*
X140652835Y-140244070D01*
X140716469Y-140243110D01*
X141087304Y-140235422D01*
X141420325Y-140224993D01*
X141706715Y-140212352D01*
X141937659Y-140198032D01*
X142104339Y-140182563D01*
X142197940Y-140166476D01*
X142209643Y-140150302D01*
X142186560Y-140144921D01*
X142080801Y-140134801D01*
X141905417Y-140125224D01*
X141674205Y-140116749D01*
X141400957Y-140109934D01*
X141099469Y-140105340D01*
X140879660Y-140103167D01*
X140596333Y-140101437D01*
X140385840Y-140102459D01*
X140237200Y-140106942D01*
X140139435Y-140115594D01*
X140081564Y-140129125D01*
X140052609Y-140148244D01*
X140041589Y-140173661D01*
X140041341Y-140188096D01*
X140041095Y-140202423D01*
X138826036Y-140202423D01*
X138826222Y-140188096D01*
X138798729Y-140108846D01*
X138757210Y-140071607D01*
X138738824Y-140079242D01*
X138717143Y-140139643D01*
X138716862Y-140169386D01*
X138713741Y-140240562D01*
X137445278Y-140240562D01*
X137438493Y-140206018D01*
X137400190Y-140113982D01*
X137391047Y-140099271D01*
X137371952Y-140081673D01*
X137338523Y-140067154D01*
X137283121Y-140055417D01*
X137198108Y-140046168D01*
X137075847Y-140039111D01*
X136908699Y-140033950D01*
X136689027Y-140030390D01*
X136409192Y-140028135D01*
X136061556Y-140026891D01*
X135638483Y-140026361D01*
X135132333Y-140026250D01*
X135073755Y-140026257D01*
X134637831Y-140026746D01*
X134231874Y-140027954D01*
X133864563Y-140029803D01*
X133544576Y-140032217D01*
X133280591Y-140035119D01*
X133081286Y-140038430D01*
X132955340Y-140042075D01*
X132911429Y-140045976D01*
X125409782Y-140045976D01*
X125396825Y-140022528D01*
X125315890Y-139981512D01*
X125192886Y-139996477D01*
X125046284Y-140062809D01*
X124894554Y-140175896D01*
X124884039Y-140186331D01*
X124820606Y-140301081D01*
X124790983Y-140449662D01*
X124470101Y-140449662D01*
X124513733Y-140150751D01*
X124619971Y-139810493D01*
X124772103Y-139542977D01*
X124859028Y-139445934D01*
X124950710Y-139401450D01*
X125088658Y-139391250D01*
X125170284Y-139390623D01*
X125248373Y-139380884D01*
X125264948Y-139348333D01*
X125238427Y-139279192D01*
X125216616Y-139213809D01*
X125218381Y-139136136D01*
X125577806Y-139136136D01*
X125591488Y-139159728D01*
X125686965Y-139231508D01*
X125848243Y-139297463D01*
X126056507Y-139352283D01*
X126292940Y-139390660D01*
X126538724Y-139407282D01*
X126946912Y-139413928D01*
X126976804Y-139111944D01*
X126980226Y-139080529D01*
X127044196Y-138767905D01*
X127167628Y-138414946D01*
X127352418Y-138017927D01*
X127600462Y-137573124D01*
X127913657Y-137076814D01*
X128293899Y-136525271D01*
X128342416Y-136456689D01*
X128492932Y-136236338D01*
X128629653Y-136025606D01*
X128739163Y-135845573D01*
X128808048Y-135717321D01*
X128861006Y-135604043D01*
X128922156Y-135476377D01*
X128960684Y-135399821D01*
X128970590Y-135383471D01*
X129038300Y-135333416D01*
X129102242Y-135361607D01*
X129138801Y-135460058D01*
X129136291Y-135531151D01*
X129087998Y-135702449D01*
X128983603Y-135937648D01*
X128822438Y-136238046D01*
X128603836Y-136604945D01*
X128327129Y-137039643D01*
X128326520Y-137040577D01*
X128158851Y-137300594D01*
X127995940Y-137558628D01*
X127849148Y-137796287D01*
X127729835Y-137995177D01*
X127649364Y-138136904D01*
X127536104Y-138370905D01*
X127432375Y-138631633D01*
X127352891Y-138882307D01*
X127304814Y-139100163D01*
X127295304Y-139262436D01*
X127308228Y-139344493D01*
X127350932Y-139405260D01*
X127447523Y-139427417D01*
X127451983Y-139427846D01*
X127468693Y-139427418D01*
X136047675Y-139427418D01*
X136109452Y-139433150D01*
X136241079Y-139400086D01*
X136449286Y-139329673D01*
X136627532Y-139261666D01*
X137137481Y-139016673D01*
X137618965Y-138712021D01*
X138059573Y-138358450D01*
X138248912Y-138166947D01*
X138712728Y-138166947D01*
X138906058Y-138540974D01*
X139086376Y-138839578D01*
X139318127Y-139128430D01*
X139571030Y-139363036D01*
X139828393Y-139525576D01*
X140032340Y-139594424D01*
X140285159Y-139638752D01*
X140552657Y-139655890D01*
X140801840Y-139643736D01*
X140999714Y-139600188D01*
X141062049Y-139576320D01*
X141172097Y-139525790D01*
X141203147Y-139491043D01*
X141161581Y-139466822D01*
X140913699Y-139392317D01*
X140582581Y-139262353D01*
X140305893Y-139109210D01*
X140297809Y-139103895D01*
X140109588Y-138962499D01*
X139922398Y-138791925D01*
X139743244Y-138602553D01*
X139579129Y-138404760D01*
X139437056Y-138208923D01*
X139324029Y-138025421D01*
X139247052Y-137864632D01*
X139213128Y-137736933D01*
X139229262Y-137652704D01*
X139302456Y-137622321D01*
X139336640Y-137631217D01*
X139426095Y-137713589D01*
X139536020Y-137883125D01*
X139588208Y-137969071D01*
X139774313Y-138214618D01*
X140004879Y-138454609D01*
X140264108Y-138677393D01*
X140536203Y-138871316D01*
X140805365Y-139024724D01*
X141055795Y-139125966D01*
X141271697Y-139163387D01*
X141324596Y-139159693D01*
X141339102Y-139140289D01*
X141306170Y-139094739D01*
X141218199Y-139012623D01*
X141067589Y-138883521D01*
X140992470Y-138819433D01*
X140607809Y-138472232D01*
X140279191Y-138141858D01*
X140011178Y-137833915D01*
X139808333Y-137554007D01*
X139675217Y-137307739D01*
X139616392Y-137100714D01*
X139612644Y-137049507D01*
X139629180Y-136981674D01*
X139692322Y-136964643D01*
X139727327Y-136971727D01*
X139807046Y-137040647D01*
X139896429Y-137189957D01*
X139899524Y-137196013D01*
X139971096Y-137312753D01*
X140073003Y-137452685D01*
X140191257Y-137599745D01*
X140311868Y-137737873D01*
X140420845Y-137851004D01*
X140504200Y-137923076D01*
X140547943Y-137938027D01*
X140550321Y-137934929D01*
X140555209Y-137865515D01*
X140535767Y-137735647D01*
X140497616Y-137567698D01*
X140446376Y-137384037D01*
X140389581Y-137212805D01*
X140874590Y-137212805D01*
X140882517Y-137245388D01*
X140898149Y-137360141D01*
X140914007Y-137528336D01*
X140927652Y-137726357D01*
X140939369Y-137908111D01*
X140955061Y-138054922D01*
X140977848Y-138148795D01*
X141013017Y-138210125D01*
X141065857Y-138259303D01*
X141172380Y-138327744D01*
X141272837Y-138339311D01*
X141367296Y-138276760D01*
X141411868Y-138208399D01*
X141446127Y-138051085D01*
X141440083Y-137853109D01*
X141398582Y-137636652D01*
X141326469Y-137423892D01*
X141228592Y-137237010D01*
X141109795Y-137098185D01*
X141072785Y-137067355D01*
X140996579Y-137013340D01*
X140950719Y-137012928D01*
X140907241Y-137060984D01*
X140876862Y-137123621D01*
X140874590Y-137212805D01*
X140389581Y-137212805D01*
X140387667Y-137207036D01*
X140327111Y-137059065D01*
X140271990Y-136952710D01*
X140152301Y-136754411D01*
X140033968Y-136587097D01*
X141393214Y-136587097D01*
X141403521Y-136616251D01*
X141455316Y-136710988D01*
X141540872Y-136849617D01*
X141649086Y-137013633D01*
X141683576Y-137064864D01*
X141812254Y-137272891D01*
X141893026Y-137451603D01*
X141928193Y-137623481D01*
X141920055Y-137811006D01*
X141870912Y-138036659D01*
X141866485Y-138051085D01*
X141783065Y-138322921D01*
X141724083Y-138505879D01*
X141670095Y-138680781D01*
X141633483Y-138808224D01*
X141620000Y-138868941D01*
X141640008Y-138906988D01*
X141714110Y-138989274D01*
X141824107Y-139089081D01*
X141882022Y-139140289D01*
X141912329Y-139167086D01*
X141995925Y-139252609D01*
X142028214Y-139302793D01*
X142005956Y-139353736D01*
X141941007Y-139433100D01*
X141907398Y-139468488D01*
X141882286Y-139517586D01*
X141922038Y-139546493D01*
X141992288Y-139559076D01*
X142127108Y-139568911D01*
X142292728Y-139572678D01*
X142595179Y-139572678D01*
X142595249Y-139379911D01*
X142611158Y-139236620D01*
X142627321Y-139201483D01*
X143131764Y-139201483D01*
X143133442Y-139331471D01*
X143186460Y-139420735D01*
X143250534Y-139455278D01*
X143363580Y-139480931D01*
X143443661Y-139468870D01*
X143587264Y-139414141D01*
X143719219Y-139333826D01*
X143800677Y-139248574D01*
X143819289Y-139196712D01*
X143803350Y-139088613D01*
X143727173Y-138995404D01*
X143611642Y-138927244D01*
X143477639Y-138894295D01*
X143346046Y-138906717D01*
X143237747Y-138974672D01*
X143177809Y-139062220D01*
X143131764Y-139201483D01*
X142627321Y-139201483D01*
X142704166Y-139034431D01*
X142710670Y-139025279D01*
X142766225Y-138937839D01*
X142790283Y-138859207D01*
X142787065Y-138756869D01*
X142760792Y-138598308D01*
X142723555Y-138331385D01*
X142713387Y-137957353D01*
X143187557Y-137957353D01*
X143212182Y-138201829D01*
X143288724Y-138374552D01*
X143418725Y-138479097D01*
X143468454Y-138498384D01*
X143640946Y-138525292D01*
X143814362Y-138504351D01*
X143966151Y-138443505D01*
X144073761Y-138350701D01*
X144114643Y-138233886D01*
X144113867Y-138212657D01*
X144075400Y-138115996D01*
X143988506Y-138089736D01*
X143866424Y-138138941D01*
X143803998Y-138175699D01*
X143690984Y-138206051D01*
X143582239Y-138168391D01*
X143452429Y-138057750D01*
X143427114Y-138031636D01*
X143328216Y-137894502D01*
X143298214Y-137759947D01*
X143299240Y-137722842D01*
X143346343Y-137538512D01*
X143464581Y-137408040D01*
X143655245Y-137330481D01*
X143919623Y-137304892D01*
X144166733Y-137328583D01*
X144399577Y-137416069D01*
X144567822Y-137566373D01*
X144669662Y-137777782D01*
X144703290Y-138048582D01*
X144673428Y-138325693D01*
X144576346Y-138589841D01*
X144416846Y-138796861D01*
X144401725Y-138811300D01*
X144336661Y-138891295D01*
X144322825Y-138944271D01*
X144335008Y-138959330D01*
X144416187Y-138983631D01*
X144529639Y-138954931D01*
X144652832Y-138885197D01*
X144763230Y-138786399D01*
X144838300Y-138670503D01*
X144877966Y-138494891D01*
X144882208Y-138243141D01*
X144850215Y-137930873D01*
X144783128Y-137569078D01*
X144682093Y-137168750D01*
X144661070Y-137094954D01*
X144597760Y-136879248D01*
X144542505Y-136700301D01*
X144500638Y-136575017D01*
X144477492Y-136520298D01*
X144428947Y-136525309D01*
X144325749Y-136576080D01*
X144184932Y-136661937D01*
X144129643Y-136699407D01*
X144023074Y-136771631D01*
X143856755Y-136893912D01*
X143702552Y-137017534D01*
X143577044Y-137131247D01*
X143496764Y-137215029D01*
X143321046Y-137448686D01*
X143221028Y-137685396D01*
X143187650Y-137944070D01*
X143187557Y-137957353D01*
X142713387Y-137957353D01*
X142712248Y-137915445D01*
X142757257Y-137523542D01*
X142856084Y-137173149D01*
X143006229Y-136881740D01*
X143043039Y-136826247D01*
X143095631Y-136738054D01*
X143109479Y-136699407D01*
X143088113Y-136688859D01*
X143003466Y-136648663D01*
X142879759Y-136590664D01*
X142804991Y-136550790D01*
X142601907Y-136385068D01*
X142449202Y-136171538D01*
X142367008Y-135935907D01*
X142335544Y-135749674D01*
X142223617Y-135971623D01*
X142220443Y-135977895D01*
X142131654Y-136128521D01*
X142093392Y-136193431D01*
X141967003Y-136343613D01*
X141850951Y-136416878D01*
X141829552Y-136422884D01*
X141722458Y-136451715D01*
X141585982Y-136487441D01*
X141532963Y-136503069D01*
X141432917Y-136546626D01*
X141393214Y-136587097D01*
X140033968Y-136587097D01*
X140029095Y-136580207D01*
X139947262Y-136468706D01*
X139877781Y-136355168D01*
X139851072Y-136284196D01*
X139884773Y-136209516D01*
X139965174Y-136182286D01*
X140055756Y-136216729D01*
X140072866Y-136230247D01*
X140113591Y-136240842D01*
X140116197Y-136222519D01*
X140490389Y-136222519D01*
X140513603Y-136371290D01*
X140525735Y-136393878D01*
X140600237Y-136433144D01*
X140706373Y-136416125D01*
X140820314Y-136350353D01*
X140918230Y-136243363D01*
X140919199Y-136241878D01*
X140966794Y-136128521D01*
X140935535Y-136058665D01*
X140826526Y-136034821D01*
X140677002Y-136050328D01*
X140546296Y-136113983D01*
X140490389Y-136222519D01*
X140116197Y-136222519D01*
X140123214Y-136173183D01*
X140117752Y-136119593D01*
X140086747Y-136092745D01*
X140008773Y-136089826D01*
X139862411Y-136105257D01*
X139766412Y-136117244D01*
X139730745Y-136123135D01*
X139635671Y-136138838D01*
X139566116Y-136166305D01*
X139538500Y-136209857D01*
X139535627Y-136250585D01*
X139533572Y-136279707D01*
X139531283Y-136337938D01*
X139492888Y-136573000D01*
X139414097Y-136852409D01*
X139303950Y-137153159D01*
X139171490Y-137452242D01*
X139025760Y-137726650D01*
X138875800Y-137953378D01*
X138712728Y-138166947D01*
X138248912Y-138166947D01*
X138446895Y-137966702D01*
X138768520Y-137547519D01*
X139012037Y-137111642D01*
X139034418Y-137060341D01*
X139098838Y-136893047D01*
X139160935Y-136707818D01*
X139214888Y-136525261D01*
X139254875Y-136365981D01*
X139275076Y-136250585D01*
X139269668Y-136199678D01*
X139265130Y-136198054D01*
X139193829Y-136193532D01*
X139061200Y-136195818D01*
X138891767Y-136204592D01*
X138776070Y-136212742D01*
X138645273Y-136227167D01*
X138642567Y-136228005D01*
X138572534Y-136249692D01*
X138537571Y-136288305D01*
X138520104Y-136350997D01*
X138512214Y-136379705D01*
X138439032Y-136519058D01*
X138304392Y-136698643D01*
X138117569Y-136907875D01*
X137887840Y-137136171D01*
X137624481Y-137372944D01*
X137604613Y-137389981D01*
X137284719Y-137667618D01*
X137027540Y-137899503D01*
X136824808Y-138095251D01*
X136718647Y-138210007D01*
X136668258Y-138264475D01*
X136549623Y-138416789D01*
X136460635Y-138561806D01*
X136393028Y-138709140D01*
X136390213Y-138717368D01*
X136338535Y-138868405D01*
X136320064Y-138922194D01*
X136234749Y-139103694D01*
X136132200Y-139261449D01*
X136106759Y-139293771D01*
X136049020Y-139381441D01*
X136047675Y-139427418D01*
X127468693Y-139427418D01*
X127575592Y-139424680D01*
X127634798Y-139373012D01*
X127650000Y-139255525D01*
X127678703Y-139145804D01*
X127764858Y-139027016D01*
X127766946Y-139025075D01*
X127921373Y-138940064D01*
X128144472Y-138899877D01*
X128426680Y-138903731D01*
X128758434Y-138950844D01*
X129130169Y-139040431D01*
X129532322Y-139171711D01*
X129609428Y-139199606D01*
X129781471Y-139254938D01*
X129924163Y-139282586D01*
X130077309Y-139288167D01*
X130280714Y-139277297D01*
X130430869Y-139266525D01*
X130559596Y-139255178D01*
X134601981Y-139255178D01*
X135154870Y-139255178D01*
X135196345Y-139255149D01*
X135439618Y-139251649D01*
X135612948Y-139236973D01*
X135734479Y-139203545D01*
X135822358Y-139143790D01*
X135894731Y-139050134D01*
X135969743Y-138915000D01*
X135979010Y-138897097D01*
X136027553Y-138792091D01*
X136039533Y-138717368D01*
X136004265Y-138664578D01*
X135911065Y-138625374D01*
X135749246Y-138591408D01*
X135508125Y-138554331D01*
X135304925Y-138523984D01*
X135113882Y-138493923D01*
X134970478Y-138469674D01*
X134895804Y-138454670D01*
X134892448Y-138453766D01*
X134844310Y-138455861D01*
X134821923Y-138508709D01*
X134816429Y-138632113D01*
X134816412Y-138636214D01*
X134799036Y-138752369D01*
X134786312Y-138837430D01*
X134709205Y-139043384D01*
X134681010Y-139099077D01*
X134601981Y-139255178D01*
X130559596Y-139255178D01*
X130634969Y-139248534D01*
X130776633Y-139224592D01*
X130873725Y-139186220D01*
X130944105Y-139124940D01*
X131005636Y-139032276D01*
X131076178Y-138899749D01*
X131083880Y-138885016D01*
X131167700Y-138728428D01*
X131240126Y-138599220D01*
X131286226Y-138524096D01*
X131303368Y-138494553D01*
X131304715Y-138422262D01*
X131246300Y-138319989D01*
X131205049Y-138259163D01*
X131035881Y-137962170D01*
X130872950Y-137604827D01*
X130726478Y-137211335D01*
X130606688Y-136805893D01*
X130570444Y-136661578D01*
X130489189Y-136314110D01*
X130430761Y-136024697D01*
X130396329Y-135800437D01*
X130387062Y-135648427D01*
X130404128Y-135575765D01*
X130406445Y-135573478D01*
X130479985Y-135537072D01*
X130546219Y-135581875D01*
X130607506Y-135711055D01*
X130666204Y-135927780D01*
X130712950Y-136114672D01*
X130789954Y-136381340D01*
X130883340Y-136676952D01*
X130985182Y-136978180D01*
X131087559Y-137261700D01*
X131182544Y-137504185D01*
X131262215Y-137682308D01*
X131426656Y-137990913D01*
X131581871Y-138237425D01*
X131720271Y-138404780D01*
X131845023Y-138497406D01*
X131848171Y-138498915D01*
X131948155Y-138562915D01*
X132014713Y-138655742D01*
X132070021Y-138808008D01*
X132096597Y-138901959D01*
X132128081Y-139029669D01*
X132140357Y-139104661D01*
X132141241Y-139125012D01*
X132154090Y-139152900D01*
X132192039Y-139150843D01*
X132252507Y-139120802D01*
X132866072Y-139120802D01*
X132867905Y-139124453D01*
X132924895Y-139147793D01*
X133045577Y-139176189D01*
X133208103Y-139204308D01*
X133351914Y-139224726D01*
X133560465Y-139247711D01*
X133706553Y-139251030D01*
X133807188Y-139234526D01*
X133879377Y-139198038D01*
X133918643Y-139162087D01*
X133934211Y-139099077D01*
X133905159Y-138990692D01*
X133893775Y-138961095D01*
X133801937Y-138835820D01*
X133662257Y-138785519D01*
X133470914Y-138808588D01*
X133426663Y-138821974D01*
X133288041Y-138875148D01*
X133138974Y-138943849D01*
X133003159Y-139015847D01*
X132904293Y-139078909D01*
X132866072Y-139120802D01*
X132252507Y-139120802D01*
X132267436Y-139113385D01*
X132392630Y-139035071D01*
X132579970Y-138910446D01*
X132747328Y-138802222D01*
X133062605Y-138627845D01*
X133339610Y-138519965D01*
X133588747Y-138474082D01*
X133631863Y-138470236D01*
X133732784Y-138452153D01*
X133773148Y-138429534D01*
X133749204Y-138393897D01*
X133663293Y-138308553D01*
X133525551Y-138185675D01*
X133347147Y-138034684D01*
X133139249Y-137865000D01*
X132913024Y-137686040D01*
X132679641Y-137507226D01*
X132448460Y-137327488D01*
X131941907Y-136883346D01*
X131523500Y-136435636D01*
X131191416Y-135982269D01*
X131044982Y-135709545D01*
X131414643Y-135709545D01*
X131436046Y-135757174D01*
X131495812Y-135858541D01*
X131580487Y-135990070D01*
X131725152Y-136182201D01*
X131957954Y-136441069D01*
X132242924Y-136719435D01*
X132565655Y-137003348D01*
X132911740Y-137278863D01*
X133175191Y-137480165D01*
X133483441Y-137724974D01*
X133728552Y-137934465D01*
X133918118Y-138116774D01*
X134059735Y-138280035D01*
X134159102Y-138429534D01*
X134160996Y-138432384D01*
X134229497Y-138581956D01*
X134272832Y-138736888D01*
X134276308Y-138753395D01*
X134317299Y-138906740D01*
X134357577Y-138971470D01*
X134400225Y-138949441D01*
X134448328Y-138842509D01*
X134467572Y-138752369D01*
X134461142Y-138554322D01*
X134407643Y-138338147D01*
X134313505Y-138137464D01*
X134304416Y-138123217D01*
X134680484Y-138123217D01*
X134725714Y-138165912D01*
X134779093Y-138190469D01*
X134892094Y-138211270D01*
X134956864Y-138216062D01*
X135062183Y-138239495D01*
X135101379Y-138247812D01*
X135132465Y-138210007D01*
X135106398Y-138102281D01*
X135061540Y-138059667D01*
X134956912Y-138033157D01*
X134832620Y-138037964D01*
X134725714Y-138076587D01*
X134716638Y-138082637D01*
X134680484Y-138123217D01*
X134304416Y-138123217D01*
X134303102Y-138121157D01*
X134199055Y-137988515D01*
X134041018Y-137827043D01*
X133824445Y-137632825D01*
X133677333Y-137511370D01*
X134227910Y-137511370D01*
X134234167Y-137531722D01*
X134287244Y-137607958D01*
X134377023Y-137704784D01*
X134527259Y-137850399D01*
X134621952Y-137747699D01*
X134640769Y-137725782D01*
X134724996Y-137604094D01*
X134801963Y-137463571D01*
X134821193Y-137423537D01*
X134879184Y-137329908D01*
X134947478Y-137292120D01*
X135059065Y-137287591D01*
X135085024Y-137288957D01*
X135235705Y-137328673D01*
X135377316Y-137435002D01*
X135418272Y-137472211D01*
X135521483Y-137547156D01*
X135596980Y-137576964D01*
X135655449Y-137563897D01*
X135779522Y-137521335D01*
X135940481Y-137459017D01*
X136113960Y-137387089D01*
X136275595Y-137315699D01*
X136370315Y-137269855D01*
X137175000Y-137269855D01*
X137175049Y-137271731D01*
X137209018Y-137304192D01*
X137212430Y-137303446D01*
X137269467Y-137265605D01*
X137376066Y-137179504D01*
X137518198Y-137057577D01*
X137681832Y-136912257D01*
X137852938Y-136755974D01*
X138017484Y-136601162D01*
X138161442Y-136460252D01*
X138392208Y-136228005D01*
X138157800Y-136198637D01*
X138140774Y-136196512D01*
X138012371Y-136184951D01*
X137927123Y-136199600D01*
X137850520Y-136254289D01*
X137748050Y-136362849D01*
X137680074Y-136445751D01*
X137577568Y-136586825D01*
X137465809Y-136752657D01*
X137357236Y-136923561D01*
X137264285Y-137079853D01*
X137221552Y-137160189D01*
X137199394Y-137201846D01*
X137175000Y-137269855D01*
X136370315Y-137269855D01*
X136401022Y-137254993D01*
X136465874Y-137215118D01*
X136473293Y-137160189D01*
X136431908Y-137070518D01*
X136388161Y-137015064D01*
X136291445Y-136906632D01*
X136165055Y-136773058D01*
X136024254Y-136629587D01*
X135884301Y-136491462D01*
X135760456Y-136373927D01*
X135667981Y-136292228D01*
X135622134Y-136261607D01*
X135612467Y-136265116D01*
X135541916Y-136308121D01*
X135418007Y-136392391D01*
X135254795Y-136508207D01*
X135066336Y-136645852D01*
X134969843Y-136718807D01*
X134928587Y-136752505D01*
X134731652Y-136913361D01*
X134528075Y-137100515D01*
X134369400Y-137269648D01*
X134265916Y-137410140D01*
X134227910Y-137511370D01*
X133677333Y-137511370D01*
X133544792Y-137401944D01*
X133197512Y-137130484D01*
X133071796Y-137035787D01*
X133741118Y-137035787D01*
X133742192Y-137098666D01*
X133782278Y-137151895D01*
X133833358Y-137189948D01*
X133880165Y-137172511D01*
X133947667Y-137087832D01*
X134008191Y-136994742D01*
X134076873Y-136859497D01*
X134109288Y-136752505D01*
X134096853Y-136696293D01*
X134076097Y-136686493D01*
X133978793Y-136695181D01*
X133877552Y-136771909D01*
X133793230Y-136902513D01*
X133780469Y-136931107D01*
X133741118Y-137035787D01*
X133071796Y-137035787D01*
X132778061Y-136814528D01*
X132640885Y-136711909D01*
X132381113Y-136513782D01*
X132138667Y-136324211D01*
X131927565Y-136154384D01*
X131761827Y-136015488D01*
X131655471Y-135918708D01*
X131630123Y-135893536D01*
X131520632Y-135789335D01*
X131443695Y-135723566D01*
X131414643Y-135709545D01*
X131044982Y-135709545D01*
X130987783Y-135603017D01*
X131877905Y-135603017D01*
X131883334Y-135656845D01*
X131896976Y-135663941D01*
X131913572Y-135626607D01*
X131910298Y-135602595D01*
X131883334Y-135596369D01*
X131877905Y-135603017D01*
X130987783Y-135603017D01*
X130943830Y-135521157D01*
X130875025Y-135381582D01*
X130806396Y-135290990D01*
X130739459Y-135263750D01*
X130663669Y-135254756D01*
X130623788Y-135213746D01*
X130651859Y-135135126D01*
X130702360Y-135072809D01*
X132017557Y-135072809D01*
X132030622Y-135090269D01*
X132078820Y-135051346D01*
X132175738Y-134951264D01*
X132208703Y-134918092D01*
X132401691Y-134781919D01*
X132614336Y-134731409D01*
X132859445Y-134763037D01*
X133041784Y-134834926D01*
X133221322Y-134966161D01*
X133343129Y-135130660D01*
X133396514Y-135313059D01*
X133370788Y-135497991D01*
X133314835Y-135609606D01*
X133191508Y-135739641D01*
X133045696Y-135800660D01*
X132895815Y-135791192D01*
X132760282Y-135709769D01*
X132657516Y-135554920D01*
X132618796Y-135475993D01*
X132561476Y-135409329D01*
X132519503Y-135420046D01*
X132503214Y-135511080D01*
X132518751Y-135626607D01*
X132520342Y-135638435D01*
X132602358Y-135808155D01*
X132736578Y-135924830D01*
X132929660Y-135986193D01*
X133134963Y-135977567D01*
X133317735Y-135897993D01*
X133398048Y-135813263D01*
X134066763Y-135813263D01*
X134084942Y-135866466D01*
X134184289Y-135949287D01*
X134208838Y-135965357D01*
X134371167Y-136029280D01*
X134562815Y-136055270D01*
X134755380Y-136044426D01*
X134821509Y-136025766D01*
X136704961Y-136025766D01*
X136766786Y-136102857D01*
X136790204Y-136127433D01*
X136872847Y-136199409D01*
X136930926Y-136206099D01*
X136989469Y-136153157D01*
X137008197Y-136123135D01*
X136990736Y-136081469D01*
X136897540Y-136039764D01*
X136792213Y-136006054D01*
X136711833Y-135994272D01*
X136704961Y-136025766D01*
X134821509Y-136025766D01*
X134920462Y-135997844D01*
X135029659Y-135916622D01*
X135066625Y-135844632D01*
X135084355Y-135678650D01*
X135042530Y-135487454D01*
X134949142Y-135290666D01*
X134812179Y-135107906D01*
X134639632Y-134958796D01*
X134592851Y-134928473D01*
X134471318Y-134864692D01*
X134410980Y-134860704D01*
X134415503Y-134914889D01*
X134488555Y-135025625D01*
X134623227Y-135220202D01*
X134711434Y-135417462D01*
X134718953Y-135534247D01*
X134721544Y-135574500D01*
X134654232Y-135688763D01*
X134510168Y-135757701D01*
X134290026Y-135778761D01*
X134284461Y-135778687D01*
X134132389Y-135785422D01*
X134066763Y-135813263D01*
X133398048Y-135813263D01*
X133455258Y-135752907D01*
X133505171Y-135660703D01*
X133539170Y-135534247D01*
X133521559Y-135397483D01*
X133452152Y-135218393D01*
X133356323Y-135042765D01*
X133142390Y-134790123D01*
X132874434Y-134603148D01*
X132587666Y-134500141D01*
X135278259Y-134500141D01*
X135287381Y-134542862D01*
X135343860Y-134634160D01*
X135436130Y-134755181D01*
X135442596Y-134763050D01*
X135538696Y-134876234D01*
X135606917Y-134949756D01*
X135632857Y-134968034D01*
X135630610Y-134951195D01*
X135612438Y-134865373D01*
X135581985Y-134739029D01*
X135558251Y-134657724D01*
X135503518Y-134555483D01*
X135425181Y-134510408D01*
X135350822Y-134497340D01*
X135279326Y-134499589D01*
X135278259Y-134500141D01*
X132587666Y-134500141D01*
X132564760Y-134491913D01*
X132377720Y-134465440D01*
X132220729Y-134485612D01*
X132122030Y-134564552D01*
X132072863Y-134706075D01*
X132071027Y-134717769D01*
X132046928Y-134871099D01*
X132026018Y-135003855D01*
X132017557Y-135072809D01*
X130702360Y-135072809D01*
X130749976Y-135014052D01*
X130920233Y-134845682D01*
X130926226Y-134840072D01*
X131074009Y-134697624D01*
X131156429Y-134607350D01*
X131177816Y-134563707D01*
X131142500Y-134561151D01*
X131134638Y-134563059D01*
X131026020Y-134580898D01*
X130862856Y-134599632D01*
X130677301Y-134615502D01*
X130360824Y-134619035D01*
X129883767Y-134550839D01*
X129423365Y-134394716D01*
X128985072Y-134152159D01*
X128948739Y-134127997D01*
X128818696Y-134045238D01*
X128727564Y-133993211D01*
X128693214Y-133982316D01*
X128718494Y-134028819D01*
X128784888Y-134126058D01*
X128878005Y-134252938D01*
X129040968Y-134492855D01*
X129153935Y-134724868D01*
X129192143Y-134914555D01*
X129183383Y-135004691D01*
X129139911Y-135058202D01*
X129054390Y-135036064D01*
X129027056Y-135025197D01*
X128974841Y-135035446D01*
X128912482Y-135099394D01*
X128824117Y-135230428D01*
X128577311Y-135592772D01*
X128243216Y-136028109D01*
X127839267Y-136509614D01*
X127367880Y-137034416D01*
X126831470Y-137599643D01*
X126494573Y-137950220D01*
X126265161Y-138196527D01*
X126188883Y-138278422D01*
X125947063Y-138551082D01*
X125767079Y-138770691D01*
X125646897Y-138939741D01*
X125584484Y-139060726D01*
X125577806Y-139136136D01*
X125218381Y-139136136D01*
X125218964Y-139110504D01*
X125264465Y-138965265D01*
X125289170Y-138905464D01*
X125352044Y-138782670D01*
X125407209Y-138708912D01*
X125440658Y-138680796D01*
X125467221Y-138653365D01*
X125474543Y-138629878D01*
X125455505Y-138609235D01*
X125402987Y-138590337D01*
X125309868Y-138572087D01*
X125169028Y-138553387D01*
X124973348Y-138533138D01*
X124715707Y-138510241D01*
X124388986Y-138483599D01*
X123986064Y-138452113D01*
X123499822Y-138414685D01*
X123073616Y-138382106D01*
X122679920Y-138352874D01*
X122360306Y-138330837D01*
X122106183Y-138315984D01*
X121908962Y-138308308D01*
X121760051Y-138307798D01*
X121650862Y-138314444D01*
X121572804Y-138328237D01*
X121517287Y-138349168D01*
X121475721Y-138377228D01*
X121439515Y-138412406D01*
X121294196Y-138528446D01*
X121059953Y-138638318D01*
X120788113Y-138708895D01*
X120504767Y-138735977D01*
X120236006Y-138715365D01*
X120007920Y-138642857D01*
X119945751Y-138608664D01*
X119763822Y-138452778D01*
X119657042Y-138247980D01*
X119622782Y-137989810D01*
X119626587Y-137963229D01*
X119939286Y-137963229D01*
X119961444Y-138143749D01*
X120041709Y-138280647D01*
X120190944Y-138374554D01*
X120318482Y-138414696D01*
X120580672Y-138432581D01*
X120848941Y-138378766D01*
X121100355Y-138259274D01*
X121311976Y-138080131D01*
X121366510Y-138021835D01*
X121440025Y-137969043D01*
X121530707Y-137953157D01*
X121674833Y-137962405D01*
X121757206Y-137970206D01*
X121990162Y-137990580D01*
X122275218Y-138013775D01*
X122601408Y-138039045D01*
X122957765Y-138065645D01*
X123333325Y-138092829D01*
X123717121Y-138119851D01*
X124098189Y-138145967D01*
X124465562Y-138170429D01*
X124808276Y-138192493D01*
X125115363Y-138211413D01*
X125375860Y-138226443D01*
X125578799Y-138236838D01*
X125713217Y-138241852D01*
X125768146Y-138240740D01*
X125776150Y-138237577D01*
X125835529Y-138196527D01*
X125808057Y-138159334D01*
X125697313Y-138127872D01*
X125506875Y-138104013D01*
X125338747Y-138089968D01*
X125055203Y-138066779D01*
X124708668Y-138038829D01*
X124314538Y-138007342D01*
X123888209Y-137973543D01*
X123445079Y-137938655D01*
X123000544Y-137903902D01*
X122570000Y-137870509D01*
X122461330Y-137862023D01*
X122130216Y-137834238D01*
X121877071Y-137808625D01*
X121692042Y-137783219D01*
X121565278Y-137756056D01*
X121486929Y-137725171D01*
X121447144Y-137688599D01*
X121436072Y-137644376D01*
X121415816Y-137565265D01*
X121361300Y-137459657D01*
X121252436Y-137337799D01*
X121073941Y-137239092D01*
X120867887Y-137202136D01*
X120650104Y-137221323D01*
X120436422Y-137291050D01*
X120242669Y-137405709D01*
X120084676Y-137559696D01*
X119978272Y-137747404D01*
X119939286Y-137963229D01*
X119626587Y-137963229D01*
X119665102Y-137694188D01*
X119784796Y-137427464D01*
X119971391Y-137203069D01*
X120214422Y-137030641D01*
X120503424Y-136919813D01*
X120827932Y-136880220D01*
X120925060Y-136884372D01*
X121209146Y-136951371D01*
X121454411Y-137094726D01*
X121647222Y-137307328D01*
X121686448Y-137362903D01*
X121763205Y-137452074D01*
X121816295Y-137488071D01*
X121866531Y-137491779D01*
X121998815Y-137502308D01*
X122203693Y-137518906D01*
X122472074Y-137540826D01*
X122794863Y-137567325D01*
X123162968Y-137597657D01*
X123567294Y-137631077D01*
X123998750Y-137666841D01*
X126130536Y-137843789D01*
X126659293Y-137295755D01*
X126718748Y-137234026D01*
X126900418Y-137042705D01*
X127029987Y-136898982D01*
X127117038Y-136789946D01*
X127171155Y-136702688D01*
X127201921Y-136624297D01*
X127218921Y-136541863D01*
X127255668Y-136349927D01*
X127363216Y-135970596D01*
X127514947Y-135565858D01*
X127699501Y-135161902D01*
X127905516Y-134784917D01*
X128121629Y-134461094D01*
X128367554Y-134134688D01*
X128342046Y-133853385D01*
X128340897Y-133840944D01*
X128320026Y-133688627D01*
X128281565Y-133566206D01*
X128211452Y-133440971D01*
X128095624Y-133280214D01*
X128072540Y-133249320D01*
X127811864Y-132843087D01*
X127570557Y-132361278D01*
X127353841Y-131816878D01*
X127166934Y-131222871D01*
X127015057Y-130592241D01*
X127002662Y-130531285D01*
X126886315Y-129852789D01*
X126817162Y-129197339D01*
X126797677Y-128604886D01*
X127213222Y-128604886D01*
X127228121Y-129149235D01*
X127266344Y-129662233D01*
X127327858Y-130115714D01*
X127480115Y-130839436D01*
X127674895Y-131515803D01*
X127907043Y-132122070D01*
X128174983Y-132655850D01*
X128477136Y-133114756D01*
X128811925Y-133496400D01*
X129177773Y-133798396D01*
X129573102Y-134018356D01*
X129996334Y-134153893D01*
X130062214Y-134167030D01*
X130494958Y-134208825D01*
X130896634Y-134166517D01*
X131267638Y-134039808D01*
X131608361Y-133828401D01*
X131919197Y-133532000D01*
X132200540Y-133150307D01*
X132452781Y-132683027D01*
X132676315Y-132129860D01*
X132741525Y-131933357D01*
X132852251Y-131558188D01*
X132961849Y-131141882D01*
X133062899Y-130714780D01*
X133147978Y-130307218D01*
X133209667Y-129949536D01*
X133252036Y-129555994D01*
X133273674Y-129050496D01*
X133267928Y-128510256D01*
X133235825Y-127962489D01*
X133178391Y-127434413D01*
X133096653Y-126953245D01*
X133055394Y-126763514D01*
X132871577Y-126055471D01*
X132648016Y-125371907D01*
X132391050Y-124729095D01*
X132107018Y-124143306D01*
X131802259Y-123630812D01*
X131793045Y-123617060D01*
X131665105Y-123440632D01*
X131520926Y-123262773D01*
X131374449Y-123098427D01*
X131239615Y-122962536D01*
X131130365Y-122870044D01*
X131060640Y-122835893D01*
X131057572Y-122838545D01*
X131061279Y-122898250D01*
X131087843Y-123024644D01*
X131133593Y-123201901D01*
X131194855Y-123414196D01*
X131306484Y-123806318D01*
X131468595Y-124461190D01*
X131608979Y-125134964D01*
X131718025Y-125784107D01*
X131739711Y-125947229D01*
X131763466Y-126180828D01*
X131780303Y-126436542D01*
X131791009Y-126731502D01*
X131796369Y-127082837D01*
X131797171Y-127507678D01*
X131793717Y-127926391D01*
X131783870Y-128289994D01*
X131765536Y-128590387D01*
X131736568Y-128841593D01*
X131694819Y-129057635D01*
X131638140Y-129252536D01*
X131564385Y-129440319D01*
X131471406Y-129635008D01*
X131380990Y-129788000D01*
X131190884Y-130000793D01*
X130974064Y-130131951D01*
X130740401Y-130180232D01*
X130499766Y-130144394D01*
X130262032Y-130023197D01*
X130037070Y-129815398D01*
X129953594Y-129709699D01*
X129758457Y-129398996D01*
X129570813Y-129013400D01*
X129394388Y-128564026D01*
X129232910Y-128061990D01*
X129090107Y-127518409D01*
X128969706Y-126944397D01*
X128875433Y-126351071D01*
X128869539Y-126305034D01*
X128836534Y-125959648D01*
X128813004Y-125553007D01*
X128799205Y-125110247D01*
X128795390Y-124656498D01*
X128801814Y-124216896D01*
X128818730Y-123816574D01*
X128846394Y-123480663D01*
X128855311Y-123402155D01*
X128883497Y-123165878D01*
X128909946Y-122960375D01*
X128932031Y-122805456D01*
X128947125Y-122720931D01*
X128956473Y-122642781D01*
X128925923Y-122613926D01*
X128854234Y-122657506D01*
X128746877Y-122772122D01*
X128654481Y-122898126D01*
X128496673Y-123168528D01*
X128332499Y-123510657D01*
X128165757Y-123913299D01*
X128000247Y-124365242D01*
X127839767Y-124855270D01*
X127688116Y-125372172D01*
X127549093Y-125904733D01*
X127426496Y-126441740D01*
X127324124Y-126971979D01*
X127308805Y-127065387D01*
X127253530Y-127534796D01*
X127221680Y-128057351D01*
X127213222Y-128604886D01*
X126797677Y-128604886D01*
X126795825Y-128548580D01*
X126822924Y-127890159D01*
X126899081Y-127205723D01*
X127024916Y-126478918D01*
X127201050Y-125693393D01*
X127237719Y-125546406D01*
X127408231Y-124917973D01*
X127587297Y-124342044D01*
X127772654Y-123823333D01*
X127962038Y-123366552D01*
X128153185Y-122976415D01*
X128343831Y-122657636D01*
X128531714Y-122414926D01*
X128714568Y-122253000D01*
X128890132Y-122176570D01*
X128992947Y-122171147D01*
X129154275Y-122211414D01*
X129285874Y-122298494D01*
X129357979Y-122417086D01*
X129361791Y-122483276D01*
X129352987Y-122625733D01*
X129331658Y-122815531D01*
X129299965Y-123029864D01*
X129296104Y-123053951D01*
X129262212Y-123339905D01*
X129236803Y-123694687D01*
X129219890Y-124098762D01*
X129211487Y-124532597D01*
X129211607Y-124976658D01*
X129220264Y-125411409D01*
X129237471Y-125817316D01*
X129263242Y-126174846D01*
X129297590Y-126464464D01*
X129318318Y-126594072D01*
X129429820Y-127186979D01*
X129561290Y-127740165D01*
X129709719Y-128245134D01*
X129872097Y-128693390D01*
X130045416Y-129076438D01*
X130226666Y-129385784D01*
X130412838Y-129612930D01*
X130479626Y-129672694D01*
X130642717Y-129767006D01*
X130793169Y-129774426D01*
X130931852Y-129694266D01*
X131059635Y-129525837D01*
X131177388Y-129268451D01*
X131285980Y-128921419D01*
X131309288Y-128818660D01*
X131348849Y-128557573D01*
X131379289Y-128235483D01*
X131399950Y-127871869D01*
X131410171Y-127486211D01*
X131409292Y-127097988D01*
X131396656Y-126726680D01*
X131371602Y-126391767D01*
X131285737Y-125717662D01*
X131135023Y-124877106D01*
X130940727Y-124045582D01*
X130711026Y-123261841D01*
X130656716Y-123092489D01*
X130602923Y-122916011D01*
X130566350Y-122785421D01*
X130552857Y-122720762D01*
X130555572Y-122707052D01*
X130603525Y-122633321D01*
X130692409Y-122545103D01*
X130757573Y-122497555D01*
X130946691Y-122428894D01*
X131153321Y-122444832D01*
X131374480Y-122542814D01*
X131607183Y-122720284D01*
X131848449Y-122974686D01*
X132095292Y-123303465D01*
X132344729Y-123704064D01*
X132593778Y-124173928D01*
X132674917Y-124342441D01*
X133035792Y-125202026D01*
X133320052Y-126081611D01*
X133526367Y-126972400D01*
X133653409Y-127865599D01*
X133699848Y-128752416D01*
X133687710Y-129050496D01*
X133664355Y-129624054D01*
X133545601Y-130471721D01*
X133504735Y-130671056D01*
X133423629Y-131024212D01*
X133328824Y-131398709D01*
X133226458Y-131772457D01*
X133122667Y-132123366D01*
X133023588Y-132429346D01*
X132935359Y-132668306D01*
X132815200Y-132932036D01*
X132637744Y-133261765D01*
X132441202Y-133579003D01*
X132247421Y-133846339D01*
X132128731Y-133993750D01*
X133352131Y-133993750D01*
X133622523Y-133993071D01*
X133979277Y-133990287D01*
X134320464Y-133985654D01*
X134627299Y-133979500D01*
X134880993Y-133972152D01*
X135062761Y-133963938D01*
X135549991Y-133934127D01*
X135524824Y-133816528D01*
X135522141Y-133803216D01*
X135501964Y-133664050D01*
X135479596Y-133453231D01*
X135456299Y-133187334D01*
X135433338Y-132882931D01*
X135411975Y-132556596D01*
X135393474Y-132224902D01*
X135379097Y-131904423D01*
X135351955Y-131198489D01*
X135114369Y-131014659D01*
X134979126Y-130897807D01*
X134720955Y-130598973D01*
X134498758Y-130237948D01*
X134319248Y-129831408D01*
X134189140Y-129396029D01*
X134115150Y-128948486D01*
X134108550Y-128686415D01*
X134504738Y-128686415D01*
X134545128Y-129119999D01*
X134646639Y-129543781D01*
X134804027Y-129942973D01*
X135012048Y-130302790D01*
X135265458Y-130608448D01*
X135559013Y-130845159D01*
X135755184Y-130969266D01*
X135785283Y-131857847D01*
X135801976Y-132284135D01*
X135830132Y-132792825D01*
X135866059Y-133229416D01*
X135911379Y-133604560D01*
X135967716Y-133928905D01*
X136036692Y-134213101D01*
X136119933Y-134467798D01*
X136219059Y-134703646D01*
X136246876Y-134760249D01*
X136387211Y-134968034D01*
X136459622Y-135075249D01*
X136745127Y-135337621D01*
X137101339Y-135545803D01*
X137471624Y-135678650D01*
X137526205Y-135698232D01*
X137569954Y-135708684D01*
X137763586Y-135738946D01*
X138018417Y-135762902D01*
X138311993Y-135779802D01*
X138621857Y-135788892D01*
X138925554Y-135789423D01*
X139200626Y-135780640D01*
X139424619Y-135761793D01*
X139524324Y-135748309D01*
X139821587Y-135699197D01*
X139959433Y-135671142D01*
X141329939Y-135671142D01*
X141363595Y-135664433D01*
X141474578Y-135616031D01*
X141620201Y-135533846D01*
X141775911Y-135433282D01*
X141917156Y-135329742D01*
X142019382Y-135238628D01*
X142019815Y-135238164D01*
X142101977Y-135137792D01*
X142494335Y-135137792D01*
X142510979Y-135148455D01*
X142547752Y-135108639D01*
X142590498Y-135059843D01*
X142774201Y-134928168D01*
X142988920Y-134863910D01*
X143214257Y-134864885D01*
X143429813Y-134928910D01*
X143615191Y-135053800D01*
X143749994Y-135237370D01*
X143764743Y-135268259D01*
X143811986Y-135389286D01*
X143817821Y-135486411D01*
X143786739Y-135604508D01*
X143747230Y-135698951D01*
X143634603Y-135846947D01*
X143496330Y-135922585D01*
X143349058Y-135923719D01*
X143209435Y-135848199D01*
X143094107Y-135693878D01*
X143003393Y-135513214D01*
X142988670Y-135694132D01*
X142987140Y-135803905D01*
X143021540Y-135901783D01*
X143114118Y-136000293D01*
X143173266Y-136048441D01*
X143298932Y-136109203D01*
X143462216Y-136125536D01*
X143600304Y-136115591D01*
X143709399Y-136070756D01*
X143824357Y-135971321D01*
X143871442Y-135921422D01*
X143954242Y-135795755D01*
X143977576Y-135665161D01*
X143948586Y-135480931D01*
X143845600Y-135247774D01*
X143681881Y-135023655D01*
X143471879Y-134827643D01*
X143230048Y-134678808D01*
X143208313Y-134669185D01*
X143065141Y-134624008D01*
X142901643Y-134593784D01*
X142744715Y-134580971D01*
X142621256Y-134588027D01*
X142558162Y-134617411D01*
X142546337Y-134660861D01*
X142527649Y-134773253D01*
X142512858Y-134891009D01*
X142508768Y-134923571D01*
X142494991Y-135063210D01*
X142494335Y-135137792D01*
X142101977Y-135137792D01*
X142114081Y-135123006D01*
X142153758Y-135021429D01*
X142155453Y-134891009D01*
X142150879Y-134847416D01*
X142125365Y-134738646D01*
X142090351Y-134687005D01*
X142045892Y-134712667D01*
X141974430Y-134799831D01*
X141892821Y-134929354D01*
X141802620Y-135071670D01*
X141661560Y-135262389D01*
X141517945Y-135430249D01*
X141497339Y-135452211D01*
X141398491Y-135563606D01*
X141338586Y-135641842D01*
X141329939Y-135671142D01*
X139959433Y-135671142D01*
X140119418Y-135638581D01*
X140395130Y-135571795D01*
X140626036Y-135504169D01*
X140789449Y-135441036D01*
X141008725Y-135307814D01*
X141271162Y-135058852D01*
X141491452Y-134735204D01*
X141600876Y-134491110D01*
X143988050Y-134491110D01*
X144023019Y-134559618D01*
X144071139Y-134605121D01*
X144133324Y-134627150D01*
X144160000Y-134588946D01*
X144156276Y-134570537D01*
X144111029Y-134509949D01*
X144044184Y-134464295D01*
X143993691Y-134462440D01*
X143988050Y-134491110D01*
X141600876Y-134491110D01*
X141668260Y-134340796D01*
X141800248Y-133879556D01*
X141886084Y-133355410D01*
X141924430Y-132772285D01*
X141913953Y-132134107D01*
X141899262Y-131861318D01*
X141885670Y-131600020D01*
X141878089Y-131407703D01*
X141877758Y-131272444D01*
X141885915Y-131182323D01*
X141903800Y-131125417D01*
X141932652Y-131089804D01*
X141973711Y-131063562D01*
X142028214Y-131034769D01*
X142221039Y-130901697D01*
X142451155Y-130686528D01*
X142676500Y-130424090D01*
X142880776Y-130135530D01*
X143047687Y-129842002D01*
X143160938Y-129564653D01*
X143161232Y-129563698D01*
X143237919Y-129181220D01*
X143250613Y-128758620D01*
X143201708Y-128317529D01*
X143093599Y-127879581D01*
X142928680Y-127466408D01*
X142863035Y-127347115D01*
X142680688Y-127092335D01*
X142456705Y-126849609D01*
X142215077Y-126643415D01*
X141979795Y-126498234D01*
X141866715Y-126446609D01*
X141764732Y-126405167D01*
X141720374Y-126394328D01*
X141729581Y-126424477D01*
X141775815Y-126512533D01*
X141849186Y-126635834D01*
X141933137Y-126789085D01*
X141968929Y-126921726D01*
X141937508Y-127017160D01*
X141838565Y-127088494D01*
X141718060Y-127146251D01*
X141965729Y-127393919D01*
X142193868Y-127665516D01*
X142381264Y-128001375D01*
X142490614Y-128356256D01*
X142518292Y-128717848D01*
X142460670Y-129073838D01*
X142435724Y-129154573D01*
X142289327Y-129513051D01*
X142098924Y-129841591D01*
X141877763Y-130119965D01*
X141639094Y-130327951D01*
X141461250Y-130449474D01*
X140916964Y-130403678D01*
X140782446Y-130395446D01*
X140554874Y-130386781D01*
X140258809Y-130378999D01*
X139906054Y-130372289D01*
X139508411Y-130366838D01*
X139077685Y-130362834D01*
X138625678Y-130360465D01*
X138164193Y-130359917D01*
X135955707Y-130361952D01*
X135837127Y-130221028D01*
X135814777Y-130193729D01*
X135632647Y-129909241D01*
X135488917Y-129572673D01*
X135394601Y-129215299D01*
X135360714Y-128868393D01*
X135382912Y-128582282D01*
X135486398Y-128183925D01*
X135667718Y-127809040D01*
X135919524Y-127475934D01*
X136054460Y-127330796D01*
X135913932Y-127170743D01*
X135792634Y-126987440D01*
X135737792Y-126782340D01*
X135765920Y-126585772D01*
X135801581Y-126485321D01*
X135800625Y-126440713D01*
X135746927Y-126453806D01*
X135627479Y-126518258D01*
X135568539Y-126553652D01*
X135311253Y-126759832D01*
X135069146Y-127032631D01*
X134855747Y-127352412D01*
X134684587Y-127699535D01*
X134569194Y-128054363D01*
X134530713Y-128257813D01*
X134504738Y-128686415D01*
X134108550Y-128686415D01*
X134103992Y-128505455D01*
X134128622Y-128245696D01*
X134224851Y-127797146D01*
X134381855Y-127376190D01*
X134592379Y-126991765D01*
X134849170Y-126652810D01*
X135144972Y-126368264D01*
X135472530Y-126147065D01*
X135824591Y-125998151D01*
X136193900Y-125930460D01*
X136335141Y-125925249D01*
X136513568Y-125933890D01*
X136623425Y-125961634D01*
X136669574Y-125996353D01*
X136717809Y-126095251D01*
X136706759Y-126204166D01*
X136643774Y-126292184D01*
X136536207Y-126328393D01*
X136526782Y-126329480D01*
X136448046Y-126372894D01*
X136345380Y-126461599D01*
X136242582Y-126570737D01*
X136163451Y-126675445D01*
X136131786Y-126750864D01*
X136135063Y-126773163D01*
X136191566Y-126869863D01*
X136302625Y-126980330D01*
X136447902Y-127083183D01*
X136522892Y-127136933D01*
X136576312Y-127221485D01*
X136562741Y-127324297D01*
X136479660Y-127456514D01*
X136324554Y-127629281D01*
X136319215Y-127634780D01*
X136170795Y-127805687D01*
X136030371Y-127996542D01*
X135927679Y-128167052D01*
X135885168Y-128254364D01*
X135835360Y-128378659D01*
X135807108Y-128502097D01*
X135794496Y-128655176D01*
X135791607Y-128868393D01*
X135792076Y-128966325D01*
X135799131Y-129156672D01*
X135819274Y-129301433D01*
X135858359Y-129432587D01*
X135922238Y-129582109D01*
X135994929Y-129728353D01*
X136065883Y-129851264D01*
X136116730Y-129917933D01*
X136145769Y-129928733D01*
X136231100Y-129940447D01*
X136375185Y-129949682D01*
X136583346Y-129956556D01*
X136860909Y-129961184D01*
X137213196Y-129963684D01*
X137645533Y-129964172D01*
X138163242Y-129962765D01*
X138346536Y-129962210D01*
X138789302Y-129962436D01*
X139221559Y-129964722D01*
X139629940Y-129968874D01*
X140001079Y-129974699D01*
X140321608Y-129982004D01*
X140578161Y-129990596D01*
X140757372Y-130000280D01*
X141368850Y-130045963D01*
X141559409Y-129858943D01*
X141754407Y-129622004D01*
X141915037Y-129332646D01*
X142026536Y-129021169D01*
X142080254Y-128711914D01*
X142067540Y-128429224D01*
X142041128Y-128320550D01*
X141914513Y-128031702D01*
X141718337Y-127759913D01*
X141467717Y-127523663D01*
X141177768Y-127341431D01*
X141092568Y-127296676D01*
X140976714Y-127212855D01*
X140939643Y-127137437D01*
X140955287Y-127073286D01*
X141031977Y-126961571D01*
X141148066Y-126861797D01*
X141275915Y-126801570D01*
X141354795Y-126773605D01*
X141393214Y-126740895D01*
X141391418Y-126732532D01*
X141344276Y-126667649D01*
X141247742Y-126570826D01*
X141121424Y-126459547D01*
X140984932Y-126351297D01*
X140857872Y-126263558D01*
X140840586Y-126252776D01*
X140731904Y-126175160D01*
X140687785Y-126112230D01*
X140692363Y-126042829D01*
X140696118Y-126030620D01*
X140749440Y-125924551D01*
X140837691Y-125863117D01*
X140978403Y-125839388D01*
X141189107Y-125846430D01*
X141324993Y-125861051D01*
X141781274Y-125965535D01*
X142212143Y-126147995D01*
X142604372Y-126400378D01*
X142944733Y-126714632D01*
X143219999Y-127082706D01*
X143259340Y-127149769D01*
X143446505Y-127548493D01*
X143583440Y-127984946D01*
X143667388Y-128438729D01*
X143687406Y-128758620D01*
X143695592Y-128889440D01*
G37*
G36*
X138858498Y-136612083D02*
G01*
X138874162Y-136710232D01*
X138833666Y-136872044D01*
X138756163Y-137030741D01*
X138613489Y-137254343D01*
X138427138Y-137505105D01*
X138210983Y-137766367D01*
X137978900Y-138021469D01*
X137744763Y-138253751D01*
X137522445Y-138446552D01*
X137417445Y-138521632D01*
X137260683Y-138600317D01*
X137137205Y-138618716D01*
X137060554Y-138573116D01*
X137064172Y-138549669D01*
X137116228Y-138470946D01*
X137214641Y-138356320D01*
X137346550Y-138221599D01*
X137479898Y-138088025D01*
X137661567Y-137896171D01*
X137857690Y-137680980D01*
X138055401Y-137457262D01*
X138241834Y-137239826D01*
X138404124Y-137043480D01*
X138529404Y-136883034D01*
X138604808Y-136773297D01*
X138613063Y-136759373D01*
X138714098Y-136630677D01*
X138800527Y-136583573D01*
X138858498Y-136612083D01*
G37*
G36*
X129558063Y-135685047D02*
G01*
X129591012Y-135711237D01*
X129608820Y-135774113D01*
X129614370Y-135891608D01*
X129610542Y-136081653D01*
X129592911Y-136416869D01*
X129546865Y-136874115D01*
X129478657Y-137301802D01*
X129391180Y-137687762D01*
X129287324Y-138019832D01*
X129169981Y-138285846D01*
X129042041Y-138473639D01*
X128955953Y-138545274D01*
X128886576Y-138552941D01*
X128847712Y-138497018D01*
X128842391Y-138389966D01*
X128873641Y-138244246D01*
X128944491Y-138072316D01*
X129014213Y-137914574D01*
X129114002Y-137617598D01*
X129203271Y-137268150D01*
X129276415Y-136889158D01*
X129327834Y-136503547D01*
X129342191Y-136367605D01*
X129377156Y-136089369D01*
X129412824Y-135890068D01*
X129451422Y-135761320D01*
X129495179Y-135694746D01*
X129546324Y-135681965D01*
X129558063Y-135685047D01*
G37*
G36*
X120861056Y-137357127D02*
G01*
X121014007Y-137416756D01*
X121122620Y-137522254D01*
X121163929Y-137655159D01*
X121136744Y-137797247D01*
X121045507Y-137971371D01*
X120909254Y-138117245D01*
X120770009Y-138190871D01*
X120594959Y-138216875D01*
X120429982Y-138183654D01*
X120305435Y-138092454D01*
X120224267Y-137934563D01*
X120215863Y-137764444D01*
X120277435Y-137605849D01*
X120399238Y-137473875D01*
X120571527Y-137383619D01*
X120784557Y-137350178D01*
X120861056Y-137357127D01*
G37*
G36*
X140887435Y-132892293D02*
G01*
X141118548Y-132982963D01*
X141320165Y-133131795D01*
X141477517Y-133336761D01*
X141575836Y-133595829D01*
X141586229Y-133649220D01*
X141591760Y-133931481D01*
X141520166Y-134198366D01*
X141380662Y-134433397D01*
X141182465Y-134620093D01*
X140934792Y-134741978D01*
X140884871Y-134756633D01*
X140736230Y-134791584D01*
X140622143Y-134806891D01*
X140556337Y-134805258D01*
X140317408Y-134751518D01*
X140090521Y-134635214D01*
X139901528Y-134472467D01*
X139776280Y-134279397D01*
X139774791Y-134275798D01*
X139723129Y-134062769D01*
X139714801Y-133811701D01*
X139747904Y-133562368D01*
X139820536Y-133354544D01*
X139963407Y-133151844D01*
X140164813Y-132989561D01*
X140395799Y-132893562D01*
X140641596Y-132861816D01*
X140887435Y-132892293D01*
G37*
G36*
X137381704Y-132860012D02*
G01*
X137621025Y-132961248D01*
X137831533Y-133132223D01*
X137998695Y-133372993D01*
X138019012Y-133415026D01*
X138061391Y-133539261D01*
X138078246Y-133684212D01*
X138074684Y-133884226D01*
X138063854Y-134038675D01*
X138040110Y-134175258D01*
X137995549Y-134280492D01*
X137920051Y-134387296D01*
X137884760Y-134427986D01*
X137738483Y-134560025D01*
X137582314Y-134662768D01*
X137421575Y-134725321D01*
X137152347Y-134766009D01*
X136876472Y-134744005D01*
X136620649Y-134662462D01*
X136411578Y-134524531D01*
X136312192Y-134409268D01*
X136200696Y-134179593D01*
X136154916Y-133917322D01*
X136177450Y-133643593D01*
X136270895Y-133379545D01*
X136426980Y-133151356D01*
X136636209Y-132974187D01*
X136874762Y-132866536D01*
X137128105Y-132828460D01*
X137381704Y-132860012D01*
G37*
G36*
X131959516Y-132145374D02*
G01*
X132093847Y-132223668D01*
X132186217Y-132367305D01*
X132227215Y-132571367D01*
X132204827Y-132806851D01*
X132118520Y-133055750D01*
X132067341Y-133144342D01*
X131937253Y-133313518D01*
X131774030Y-133486435D01*
X131604256Y-133635908D01*
X131454519Y-133734750D01*
X131446175Y-133738815D01*
X131233958Y-133808083D01*
X131054098Y-133800093D01*
X130914865Y-133717120D01*
X130824532Y-133561439D01*
X130803244Y-133468312D01*
X130807522Y-133267048D01*
X130866088Y-133054859D01*
X130968982Y-132842243D01*
X131106245Y-132639696D01*
X131267917Y-132457715D01*
X131444040Y-132306795D01*
X131624654Y-132197434D01*
X131799799Y-132140128D01*
X131959516Y-132145374D01*
G37*
G36*
X129220489Y-132069822D02*
G01*
X129418616Y-132178997D01*
X129620216Y-132363744D01*
X129636341Y-132381813D01*
X129831053Y-132655489D01*
X129943669Y-132949092D01*
X129982247Y-133283090D01*
X129982444Y-133301081D01*
X129980365Y-133463350D01*
X129964561Y-133565615D01*
X129926745Y-133636004D01*
X129858632Y-133702643D01*
X129844864Y-133714087D01*
X129734787Y-133783828D01*
X129641378Y-133812321D01*
X129511303Y-133785670D01*
X129332593Y-133693350D01*
X129145604Y-133550682D01*
X128968617Y-133374052D01*
X128819913Y-133179845D01*
X128717773Y-132984449D01*
X128710314Y-132964182D01*
X128658707Y-132738113D01*
X128655310Y-132509688D01*
X128697900Y-132306575D01*
X128784256Y-132156437D01*
X128870112Y-132086975D01*
X129034699Y-132038415D01*
X129220489Y-132069822D01*
G37*
%TO.C,J6*%
D11*
X146872101Y-70900000D02*
G75*
G02*
X146110101Y-70900000I-381000J0D01*
G01*
X146110101Y-70900000D02*
G75*
G02*
X146872101Y-70900000I381000J0D01*
G01*
%TD*%
M02*
